  0
SECTION
  2
HEADER
  9
$ACADVER
  1
AC1009
  9
$FILLMODE
 70
 0
  9
$SPLFRAME
 70
 1
  9
$EXTMIN
 10
0
 20
0
 30
0.0
  9
$EXTMAX
 10
1058.33
 20
1058.33
 30
0.0
  0
ENDSEC
  0
SECTION
  2
TABLES
  0
TABLE
  2
LAYER
 70
1
  0
LAYER
  2
0
 70
     0
 62
     7
  6
CONTINUOUS
  0
ENDTAB
  0
ENDSEC
  0
SECTION
  2
ENTITIES
  0
LINE
  8
0
 62
     0
 10
0.0950846
 20
116.674
 30
0.0
 11
278.321
 21
116.674
 31
0.0
  0
LINE
  8
0
 62
     0
 10
278.321
 20
116.674
 30
0.0
 11
278.321
 21
0.374826
 31
0.0
  0
LINE
  8
0
 62
     0
 10
278.321
 20
0.374826
 30
0.0
 11
0.0950846
 21
0.374826
 31
0.0
  0
LINE
  8
0
 62
     0
 10
0.0950846
 20
0.374826
 30
0.0
 11
0.0950846
 21
116.674
 31
0.0
  0
LINE
  8
0
 62
     0
 10
80.4125
 20
17.3509
 30
0.0
 11
83.7131
 21
17.3509
 31
0.0
  0
LINE
  8
0
 62
     0
 10
83.7131
 20
17.3509
 30
0.0
 11
83.7131
 21
3.15157
 31
0.0
  0
LINE
  8
0
 62
     0
 10
83.7131
 20
3.15157
 30
0.0
 11
80.4125
 21
3.15157
 31
0.0
  0
LINE
  8
0
 62
     0
 10
80.4125
 20
3.15157
 30
0.0
 11
80.4125
 21
17.3509
 31
0.0
  0
LINE
  8
0
 62
     0
 10
180.413
 20
17.3509
 30
0.0
 11
183.713
 21
17.3509
 31
0.0
  0
LINE
  8
0
 62
     0
 10
183.713
 20
17.3509
 30
0.0
 11
183.713
 21
3.15157
 31
0.0
  0
LINE
  8
0
 62
     0
 10
183.713
 20
3.15157
 30
0.0
 11
180.413
 21
3.15157
 31
0.0
  0
LINE
  8
0
 62
     0
 10
180.413
 20
3.15157
 30
0.0
 11
180.413
 21
17.3509
 31
0.0
  0
LINE
  8
0
 62
     0
 10
5.99997
 20
17.9007
 30
0.0
 11
20.0008
 21
17.9007
 31
0.0
  0
LINE
  8
0
 62
     0
 10
20.0008
 20
17.9007
 30
0.0
 11
20.0008
 21
3.90123
 31
0.0
  0
LINE
  8
0
 62
     0
 10
20.0008
 20
3.90123
 30
0.0
 11
5.99997
 21
3.90123
 31
0.0
  0
LINE
  8
0
 62
     0
 10
5.99997
 20
3.90123
 30
0.0
 11
5.99997
 21
17.9007
 31
0.0
  0
LINE
  8
0
 62
     0
 10
29.8125
 20
17.9007
 30
0.0
 11
43.8118
 21
17.9007
 31
0.0
  0
LINE
  8
0
 62
     0
 10
43.8118
 20
17.9007
 30
0.0
 11
43.8118
 21
3.90123
 31
0.0
  0
LINE
  8
0
 62
     0
 10
43.8118
 20
3.90123
 30
0.0
 11
29.8125
 21
3.90123
 31
0.0
  0
LINE
  8
0
 62
     0
 10
29.8125
 20
3.90123
 30
0.0
 11
29.8125
 21
17.9007
 31
0.0
  0
LINE
  8
0
 62
     0
 10
53.625
 20
17.9007
 30
0.0
 11
67.6257
 21
17.9007
 31
0.0
  0
LINE
  8
0
 62
     0
 10
67.6257
 20
17.9007
 30
0.0
 11
67.6257
 21
3.90123
 31
0.0
  0
LINE
  8
0
 62
     0
 10
67.6257
 20
3.90123
 30
0.0
 11
53.625
 21
3.90123
 31
0.0
  0
LINE
  8
0
 62
     0
 10
53.625
 20
3.90123
 30
0.0
 11
53.625
 21
17.9007
 31
0.0
  0
LINE
  8
0
 62
     0
 10
125.061
 20
17.9007
 30
0.0
 11
139.062
 21
17.9007
 31
0.0
  0
LINE
  8
0
 62
     0
 10
139.062
 20
17.9007
 30
0.0
 11
139.062
 21
3.90123
 31
0.0
  0
LINE
  8
0
 62
     0
 10
139.062
 20
3.90123
 30
0.0
 11
125.061
 21
3.90123
 31
0.0
  0
LINE
  8
0
 62
     0
 10
125.061
 20
3.90123
 30
0.0
 11
125.061
 21
17.9007
 31
0.0
  0
LINE
  8
0
 62
     0
 10
196.5
 20
17.9007
 30
0.0
 11
210.501
 21
17.9007
 31
0.0
  0
LINE
  8
0
 62
     0
 10
210.501
 20
17.9007
 30
0.0
 11
210.501
 21
3.90123
 31
0.0
  0
LINE
  8
0
 62
     0
 10
210.501
 20
3.90123
 30
0.0
 11
196.5
 21
3.90123
 31
0.0
  0
LINE
  8
0
 62
     0
 10
196.5
 20
3.90123
 30
0.0
 11
196.5
 21
17.9007
 31
0.0
  0
LINE
  8
0
 62
     0
 10
217.931
 20
17.9007
 30
0.0
 11
231.932
 21
17.9007
 31
0.0
  0
LINE
  8
0
 62
     0
 10
231.932
 20
17.9007
 30
0.0
 11
231.932
 21
3.90123
 31
0.0
  0
LINE
  8
0
 62
     0
 10
231.932
 20
3.90123
 30
0.0
 11
217.931
 21
3.90123
 31
0.0
  0
LINE
  8
0
 62
     0
 10
217.931
 20
3.90123
 30
0.0
 11
217.931
 21
17.9007
 31
0.0
  0
LINE
  8
0
 62
     0
 10
236.981
 20
17.9007
 30
0.0
 11
250.982
 21
17.9007
 31
0.0
  0
LINE
  8
0
 62
     0
 10
250.982
 20
17.9007
 30
0.0
 11
250.982
 21
3.90123
 31
0.0
  0
LINE
  8
0
 62
     0
 10
250.982
 20
3.90123
 30
0.0
 11
236.981
 21
3.90123
 31
0.0
  0
LINE
  8
0
 62
     0
 10
236.981
 20
3.90123
 30
0.0
 11
236.981
 21
17.9007
 31
0.0
  0
LINE
  8
0
 62
     0
 10
258.413
 20
17.9007
 30
0.0
 11
272.412
 21
17.9007
 31
0.0
  0
LINE
  8
0
 62
     0
 10
272.412
 20
17.9007
 30
0.0
 11
272.412
 21
3.90123
 31
0.0
  0
LINE
  8
0
 62
     0
 10
272.412
 20
3.90123
 30
0.0
 11
258.413
 21
3.90123
 31
0.0
  0
LINE
  8
0
 62
     0
 10
258.413
 20
3.90123
 30
0.0
 11
258.413
 21
17.9007
 31
0.0
  0
LINE
  8
0
 62
     0
 10
8.97516
 20
36.401
 30
0.0
 11
12.2756
 21
36.401
 31
0.0
  0
LINE
  8
0
 62
     0
 10
12.2756
 20
36.401
 30
0.0
 11
12.2756
 21
22.2002
 31
0.0
  0
LINE
  8
0
 62
     0
 10
12.2756
 20
22.2002
 30
0.0
 11
8.97516
 21
22.2002
 31
0.0
  0
LINE
  8
0
 62
     0
 10
8.97516
 20
22.2002
 30
0.0
 11
8.97516
 21
36.401
 31
0.0
  0
LINE
  8
0
 62
     0
 10
32.7753
 20
36.401
 30
0.0
 11
36.0758
 21
36.401
 31
0.0
  0
LINE
  8
0
 62
     0
 10
36.0758
 20
36.401
 30
0.0
 11
36.0758
 21
22.2002
 31
0.0
  0
LINE
  8
0
 62
     0
 10
36.0758
 20
22.2002
 30
0.0
 11
32.7753
 21
22.2002
 31
0.0
  0
LINE
  8
0
 62
     0
 10
32.7753
 20
22.2002
 30
0.0
 11
32.7753
 21
36.401
 31
0.0
  0
LINE
  8
0
 62
     0
 10
242.338
 20
36.401
 30
0.0
 11
245.638
 21
36.401
 31
0.0
  0
LINE
  8
0
 62
     0
 10
245.638
 20
36.401
 30
0.0
 11
245.638
 21
22.2002
 31
0.0
  0
LINE
  8
0
 62
     0
 10
245.638
 20
22.2002
 30
0.0
 11
242.338
 21
22.2002
 31
0.0
  0
LINE
  8
0
 62
     0
 10
242.338
 20
22.2002
 30
0.0
 11
242.338
 21
36.401
 31
0.0
  0
LINE
  8
0
 62
     0
 10
266.138
 20
36.401
 30
0.0
 11
269.438
 21
36.401
 31
0.0
  0
LINE
  8
0
 62
     0
 10
269.438
 20
36.401
 30
0.0
 11
269.438
 21
22.2002
 31
0.0
  0
LINE
  8
0
 62
     0
 10
269.438
 20
22.2002
 30
0.0
 11
266.138
 21
22.2002
 31
0.0
  0
LINE
  8
0
 62
     0
 10
266.138
 20
22.2002
 30
0.0
 11
266.138
 21
36.401
 31
0.0
  0
LINE
  8
0
 62
     0
 10
15.525
 20
36.9492
 30
0.0
 11
29.5258
 21
36.9492
 31
0.0
  0
LINE
  8
0
 62
     0
 10
29.5258
 20
36.9492
 30
0.0
 11
29.5258
 21
22.9499
 31
0.0
  0
LINE
  8
0
 62
     0
 10
29.5258
 20
22.9499
 30
0.0
 11
15.525
 21
22.9499
 31
0.0
  0
LINE
  8
0
 62
     0
 10
15.525
 20
22.9499
 30
0.0
 11
15.525
 21
36.9492
 31
0.0
  0
LINE
  8
0
 62
     0
 10
46.4813
 20
36.9492
 30
0.0
 11
60.482
 21
36.9492
 31
0.0
  0
LINE
  8
0
 62
     0
 10
60.482
 20
36.9492
 30
0.0
 11
60.482
 21
22.9499
 31
0.0
  0
LINE
  8
0
 62
     0
 10
60.482
 20
22.9499
 30
0.0
 11
46.4813
 21
22.9499
 31
0.0
  0
LINE
  8
0
 62
     0
 10
46.4813
 20
22.9499
 30
0.0
 11
46.4813
 21
36.9492
 31
0.0
  0
LINE
  8
0
 62
     0
 10
65.5313
 20
36.9492
 30
0.0
 11
79.532
 21
36.9492
 31
0.0
  0
LINE
  8
0
 62
     0
 10
79.532
 20
36.9492
 30
0.0
 11
79.532
 21
22.9499
 31
0.0
  0
LINE
  8
0
 62
     0
 10
79.532
 20
22.9499
 30
0.0
 11
65.5313
 21
22.9499
 31
0.0
  0
LINE
  8
0
 62
     0
 10
65.5313
 20
22.9499
 30
0.0
 11
65.5313
 21
36.9492
 31
0.0
  0
LINE
  8
0
 62
     0
 10
84.5813
 20
36.9492
 30
0.0
 11
98.582
 21
36.9492
 31
0.0
  0
LINE
  8
0
 62
     0
 10
98.582
 20
36.9492
 30
0.0
 11
98.582
 21
22.9499
 31
0.0
  0
LINE
  8
0
 62
     0
 10
98.582
 20
22.9499
 30
0.0
 11
84.5813
 21
22.9499
 31
0.0
  0
LINE
  8
0
 62
     0
 10
84.5813
 20
22.9499
 30
0.0
 11
84.5813
 21
36.9492
 31
0.0
  0
LINE
  8
0
 62
     0
 10
103.631
 20
36.9492
 30
0.0
 11
117.632
 21
36.9492
 31
0.0
  0
LINE
  8
0
 62
     0
 10
117.632
 20
36.9492
 30
0.0
 11
117.632
 21
22.9499
 31
0.0
  0
LINE
  8
0
 62
     0
 10
117.632
 20
22.9499
 30
0.0
 11
103.631
 21
22.9499
 31
0.0
  0
LINE
  8
0
 62
     0
 10
103.631
 20
22.9499
 30
0.0
 11
103.631
 21
36.9492
 31
0.0
  0
LINE
  8
0
 62
     0
 10
122.681
 20
36.9492
 30
0.0
 11
136.682
 21
36.9492
 31
0.0
  0
LINE
  8
0
 62
     0
 10
136.682
 20
36.9492
 30
0.0
 11
136.682
 21
22.9499
 31
0.0
  0
LINE
  8
0
 62
     0
 10
136.682
 20
22.9499
 30
0.0
 11
122.681
 21
22.9499
 31
0.0
  0
LINE
  8
0
 62
     0
 10
122.681
 20
22.9499
 30
0.0
 11
122.681
 21
36.9492
 31
0.0
  0
LINE
  8
0
 62
     0
 10
141.731
 20
36.9492
 30
0.0
 11
155.732
 21
36.9492
 31
0.0
  0
LINE
  8
0
 62
     0
 10
155.732
 20
36.9492
 30
0.0
 11
155.732
 21
22.9499
 31
0.0
  0
LINE
  8
0
 62
     0
 10
155.732
 20
22.9499
 30
0.0
 11
141.731
 21
22.9499
 31
0.0
  0
LINE
  8
0
 62
     0
 10
141.731
 20
22.9499
 30
0.0
 11
141.731
 21
36.9492
 31
0.0
  0
LINE
  8
0
 62
     0
 10
160.781
 20
36.9492
 30
0.0
 11
174.782
 21
36.9492
 31
0.0
  0
LINE
  8
0
 62
     0
 10
174.782
 20
36.9492
 30
0.0
 11
174.782
 21
22.9499
 31
0.0
  0
LINE
  8
0
 62
     0
 10
174.782
 20
22.9499
 30
0.0
 11
160.781
 21
22.9499
 31
0.0
  0
LINE
  8
0
 62
     0
 10
160.781
 20
22.9499
 30
0.0
 11
160.781
 21
36.9492
 31
0.0
  0
LINE
  8
0
 62
     0
 10
179.831
 20
36.9492
 30
0.0
 11
193.832
 21
36.9492
 31
0.0
  0
LINE
  8
0
 62
     0
 10
193.832
 20
36.9492
 30
0.0
 11
193.832
 21
22.9499
 31
0.0
  0
LINE
  8
0
 62
     0
 10
193.832
 20
22.9499
 30
0.0
 11
179.831
 21
22.9499
 31
0.0
  0
LINE
  8
0
 62
     0
 10
179.831
 20
22.9499
 30
0.0
 11
179.831
 21
36.9492
 31
0.0
  0
LINE
  8
0
 62
     0
 10
198.881
 20
36.9492
 30
0.0
 11
212.882
 21
36.9492
 31
0.0
  0
LINE
  8
0
 62
     0
 10
212.882
 20
36.9492
 30
0.0
 11
212.882
 21
22.9499
 31
0.0
  0
LINE
  8
0
 62
     0
 10
212.882
 20
22.9499
 30
0.0
 11
198.881
 21
22.9499
 31
0.0
  0
LINE
  8
0
 62
     0
 10
198.881
 20
22.9499
 30
0.0
 11
198.881
 21
36.9492
 31
0.0
  0
LINE
  8
0
 62
     0
 10
217.931
 20
36.9492
 30
0.0
 11
231.932
 21
36.9492
 31
0.0
  0
LINE
  8
0
 62
     0
 10
231.932
 20
36.9492
 30
0.0
 11
231.932
 21
22.9499
 31
0.0
  0
LINE
  8
0
 62
     0
 10
231.932
 20
22.9499
 30
0.0
 11
217.931
 21
22.9499
 31
0.0
  0
LINE
  8
0
 62
     0
 10
217.931
 20
22.9499
 30
0.0
 11
217.931
 21
36.9492
 31
0.0
  0
LINE
  8
0
 62
     0
 10
248.888
 20
36.9492
 30
0.0
 11
262.887
 21
36.9492
 31
0.0
  0
LINE
  8
0
 62
     0
 10
262.887
 20
36.9492
 30
0.0
 11
262.887
 21
22.9499
 31
0.0
  0
LINE
  8
0
 62
     0
 10
262.887
 20
22.9499
 30
0.0
 11
248.888
 21
22.9499
 31
0.0
  0
LINE
  8
0
 62
     0
 10
248.888
 20
22.9499
 30
0.0
 11
248.888
 21
36.9492
 31
0.0
  0
LINE
  8
0
 62
     0
 10
10.7625
 20
55.9992
 30
0.0
 11
24.762
 21
55.9992
 31
0.0
  0
LINE
  8
0
 62
     0
 10
24.762
 20
55.9992
 30
0.0
 11
24.762
 21
42
 31
0.0
  0
LINE
  8
0
 62
     0
 10
24.762
 20
42
 30
0.0
 11
10.7625
 21
42
 31
0.0
  0
LINE
  8
0
 62
     0
 10
10.7625
 20
42
 30
0.0
 11
10.7625
 21
55.9992
 31
0.0
  0
LINE
  8
0
 62
     0
 10
36.9563
 20
55.9992
 30
0.0
 11
50.957
 21
55.9992
 31
0.0
  0
LINE
  8
0
 62
     0
 10
50.957
 20
55.9992
 30
0.0
 11
50.957
 21
42
 31
0.0
  0
LINE
  8
0
 62
     0
 10
50.957
 20
42
 30
0.0
 11
36.9563
 21
42
 31
0.0
  0
LINE
  8
0
 62
     0
 10
36.9563
 20
42
 30
0.0
 11
36.9563
 21
55.9992
 31
0.0
  0
LINE
  8
0
 62
     0
 10
56.0063
 20
55.9992
 30
0.0
 11
70.007
 21
55.9992
 31
0.0
  0
LINE
  8
0
 62
     0
 10
70.007
 20
55.9992
 30
0.0
 11
70.007
 21
42
 31
0.0
  0
LINE
  8
0
 62
     0
 10
70.007
 20
42
 30
0.0
 11
56.0063
 21
42
 31
0.0
  0
LINE
  8
0
 62
     0
 10
56.0063
 20
42
 30
0.0
 11
56.0063
 21
55.9992
 31
0.0
  0
LINE
  8
0
 62
     0
 10
75.0563
 20
55.9992
 30
0.0
 11
89.057
 21
55.9992
 31
0.0
  0
LINE
  8
0
 62
     0
 10
89.057
 20
55.9992
 30
0.0
 11
89.057
 21
42
 31
0.0
  0
LINE
  8
0
 62
     0
 10
89.057
 20
42
 30
0.0
 11
75.0563
 21
42
 31
0.0
  0
LINE
  8
0
 62
     0
 10
75.0563
 20
42
 30
0.0
 11
75.0563
 21
55.9992
 31
0.0
  0
LINE
  8
0
 62
     0
 10
94.1063
 20
55.9992
 30
0.0
 11
108.107
 21
55.9992
 31
0.0
  0
LINE
  8
0
 62
     0
 10
108.107
 20
55.9992
 30
0.0
 11
108.107
 21
42
 31
0.0
  0
LINE
  8
0
 62
     0
 10
108.107
 20
42
 30
0.0
 11
94.1063
 21
42
 31
0.0
  0
LINE
  8
0
 62
     0
 10
94.1063
 20
42
 30
0.0
 11
94.1063
 21
55.9992
 31
0.0
  0
LINE
  8
0
 62
     0
 10
113.156
 20
55.9992
 30
0.0
 11
127.157
 21
55.9992
 31
0.0
  0
LINE
  8
0
 62
     0
 10
127.157
 20
55.9992
 30
0.0
 11
127.157
 21
42
 31
0.0
  0
LINE
  8
0
 62
     0
 10
127.157
 20
42
 30
0.0
 11
113.156
 21
42
 31
0.0
  0
LINE
  8
0
 62
     0
 10
113.156
 20
42
 30
0.0
 11
113.156
 21
55.9992
 31
0.0
  0
LINE
  8
0
 62
     0
 10
132.206
 20
55.9992
 30
0.0
 11
146.207
 21
55.9992
 31
0.0
  0
LINE
  8
0
 62
     0
 10
146.207
 20
55.9992
 30
0.0
 11
146.207
 21
42
 31
0.0
  0
LINE
  8
0
 62
     0
 10
146.207
 20
42
 30
0.0
 11
132.206
 21
42
 31
0.0
  0
LINE
  8
0
 62
     0
 10
132.206
 20
42
 30
0.0
 11
132.206
 21
55.9992
 31
0.0
  0
LINE
  8
0
 62
     0
 10
151.256
 20
55.9992
 30
0.0
 11
165.257
 21
55.9992
 31
0.0
  0
LINE
  8
0
 62
     0
 10
165.257
 20
55.9992
 30
0.0
 11
165.257
 21
42
 31
0.0
  0
LINE
  8
0
 62
     0
 10
165.257
 20
42
 30
0.0
 11
151.256
 21
42
 31
0.0
  0
LINE
  8
0
 62
     0
 10
151.256
 20
42
 30
0.0
 11
151.256
 21
55.9992
 31
0.0
  0
LINE
  8
0
 62
     0
 10
170.306
 20
55.9992
 30
0.0
 11
184.307
 21
55.9992
 31
0.0
  0
LINE
  8
0
 62
     0
 10
184.307
 20
55.9992
 30
0.0
 11
184.307
 21
42
 31
0.0
  0
LINE
  8
0
 62
     0
 10
184.307
 20
42
 30
0.0
 11
170.306
 21
42
 31
0.0
  0
LINE
  8
0
 62
     0
 10
170.306
 20
42
 30
0.0
 11
170.306
 21
55.9992
 31
0.0
  0
LINE
  8
0
 62
     0
 10
189.356
 20
55.9992
 30
0.0
 11
203.357
 21
55.9992
 31
0.0
  0
LINE
  8
0
 62
     0
 10
203.357
 20
55.9992
 30
0.0
 11
203.357
 21
42
 31
0.0
  0
LINE
  8
0
 62
     0
 10
203.357
 20
42
 30
0.0
 11
189.356
 21
42
 31
0.0
  0
LINE
  8
0
 62
     0
 10
189.356
 20
42
 30
0.0
 11
189.356
 21
55.9992
 31
0.0
  0
LINE
  8
0
 62
     0
 10
208.406
 20
55.9992
 30
0.0
 11
222.407
 21
55.9992
 31
0.0
  0
LINE
  8
0
 62
     0
 10
222.407
 20
55.9992
 30
0.0
 11
222.407
 21
42
 31
0.0
  0
LINE
  8
0
 62
     0
 10
222.407
 20
42
 30
0.0
 11
208.406
 21
42
 31
0.0
  0
LINE
  8
0
 62
     0
 10
208.406
 20
42
 30
0.0
 11
208.406
 21
55.9992
 31
0.0
  0
LINE
  8
0
 62
     0
 10
227.456
 20
55.9992
 30
0.0
 11
241.457
 21
55.9992
 31
0.0
  0
LINE
  8
0
 62
     0
 10
241.457
 20
55.9992
 30
0.0
 11
241.457
 21
42
 31
0.0
  0
LINE
  8
0
 62
     0
 10
241.457
 20
42
 30
0.0
 11
227.456
 21
42
 31
0.0
  0
LINE
  8
0
 62
     0
 10
227.456
 20
42
 30
0.0
 11
227.456
 21
55.9992
 31
0.0
  0
LINE
  8
0
 62
     0
 10
253.65
 20
55.9992
 30
0.0
 11
267.651
 21
55.9992
 31
0.0
  0
LINE
  8
0
 62
     0
 10
267.651
 20
55.9992
 30
0.0
 11
267.651
 21
42
 31
0.0
  0
LINE
  8
0
 62
     0
 10
267.651
 20
42
 30
0.0
 11
253.65
 21
42
 31
0.0
  0
LINE
  8
0
 62
     0
 10
253.65
 20
42
 30
0.0
 11
253.65
 21
55.9992
 31
0.0
  0
LINE
  8
0
 62
     0
 10
8.38122
 20
75.0492
 30
0.0
 11
22.3821
 21
75.0492
 31
0.0
  0
LINE
  8
0
 62
     0
 10
22.3821
 20
75.0492
 30
0.0
 11
22.3821
 21
61.05
 31
0.0
  0
LINE
  8
0
 62
     0
 10
22.3821
 20
61.05
 30
0.0
 11
8.38122
 21
61.05
 31
0.0
  0
LINE
  8
0
 62
     0
 10
8.38122
 20
61.05
 30
0.0
 11
8.38122
 21
75.0492
 31
0.0
  0
LINE
  8
0
 62
     0
 10
32.1951
 20
75.0492
 30
0.0
 11
46.1945
 21
75.0492
 31
0.0
  0
LINE
  8
0
 62
     0
 10
46.1945
 20
75.0492
 30
0.0
 11
46.1945
 21
61.05
 31
0.0
  0
LINE
  8
0
 62
     0
 10
46.1945
 20
61.05
 30
0.0
 11
32.1951
 21
61.05
 31
0.0
  0
LINE
  8
0
 62
     0
 10
32.1951
 20
61.05
 30
0.0
 11
32.1951
 21
75.0492
 31
0.0
  0
LINE
  8
0
 62
     0
 10
51.2452
 20
75.0492
 30
0.0
 11
65.2445
 21
75.0492
 31
0.0
  0
LINE
  8
0
 62
     0
 10
65.2445
 20
75.0492
 30
0.0
 11
65.2445
 21
61.05
 31
0.0
  0
LINE
  8
0
 62
     0
 10
65.2445
 20
61.05
 30
0.0
 11
51.2452
 21
61.05
 31
0.0
  0
LINE
  8
0
 62
     0
 10
51.2452
 20
61.05
 30
0.0
 11
51.2452
 21
75.0492
 31
0.0
  0
LINE
  8
0
 62
     0
 10
70.2952
 20
75.0492
 30
0.0
 11
84.2945
 21
75.0492
 31
0.0
  0
LINE
  8
0
 62
     0
 10
84.2945
 20
75.0492
 30
0.0
 11
84.2945
 21
61.05
 31
0.0
  0
LINE
  8
0
 62
     0
 10
84.2945
 20
61.05
 30
0.0
 11
70.2952
 21
61.05
 31
0.0
  0
LINE
  8
0
 62
     0
 10
70.2952
 20
61.05
 30
0.0
 11
70.2952
 21
75.0492
 31
0.0
  0
LINE
  8
0
 62
     0
 10
89.3452
 20
75.0492
 30
0.0
 11
103.344
 21
75.0492
 31
0.0
  0
LINE
  8
0
 62
     0
 10
103.344
 20
75.0492
 30
0.0
 11
103.344
 21
61.05
 31
0.0
  0
LINE
  8
0
 62
     0
 10
103.344
 20
61.05
 30
0.0
 11
89.3452
 21
61.05
 31
0.0
  0
LINE
  8
0
 62
     0
 10
89.3452
 20
61.05
 30
0.0
 11
89.3452
 21
75.0492
 31
0.0
  0
LINE
  8
0
 62
     0
 10
108.395
 20
75.0492
 30
0.0
 11
122.394
 21
75.0492
 31
0.0
  0
LINE
  8
0
 62
     0
 10
122.394
 20
75.0492
 30
0.0
 11
122.394
 21
61.05
 31
0.0
  0
LINE
  8
0
 62
     0
 10
122.394
 20
61.05
 30
0.0
 11
108.395
 21
61.05
 31
0.0
  0
LINE
  8
0
 62
     0
 10
108.395
 20
61.05
 30
0.0
 11
108.395
 21
75.0492
 31
0.0
  0
LINE
  8
0
 62
     0
 10
127.445
 20
75.0492
 30
0.0
 11
141.444
 21
75.0492
 31
0.0
  0
LINE
  8
0
 62
     0
 10
141.444
 20
75.0492
 30
0.0
 11
141.444
 21
61.05
 31
0.0
  0
LINE
  8
0
 62
     0
 10
141.444
 20
61.05
 30
0.0
 11
127.445
 21
61.05
 31
0.0
  0
LINE
  8
0
 62
     0
 10
127.445
 20
61.05
 30
0.0
 11
127.445
 21
75.0492
 31
0.0
  0
LINE
  8
0
 62
     0
 10
146.495
 20
75.0492
 30
0.0
 11
160.494
 21
75.0492
 31
0.0
  0
LINE
  8
0
 62
     0
 10
160.494
 20
75.0492
 30
0.0
 11
160.494
 21
61.05
 31
0.0
  0
LINE
  8
0
 62
     0
 10
160.494
 20
61.05
 30
0.0
 11
146.495
 21
61.05
 31
0.0
  0
LINE
  8
0
 62
     0
 10
146.495
 20
61.05
 30
0.0
 11
146.495
 21
75.0492
 31
0.0
  0
LINE
  8
0
 62
     0
 10
165.545
 20
75.0492
 30
0.0
 11
179.544
 21
75.0492
 31
0.0
  0
LINE
  8
0
 62
     0
 10
179.544
 20
75.0492
 30
0.0
 11
179.544
 21
61.05
 31
0.0
  0
LINE
  8
0
 62
     0
 10
179.544
 20
61.05
 30
0.0
 11
165.545
 21
61.05
 31
0.0
  0
LINE
  8
0
 62
     0
 10
165.545
 20
61.05
 30
0.0
 11
165.545
 21
75.0492
 31
0.0
  0
LINE
  8
0
 62
     0
 10
184.595
 20
75.0492
 30
0.0
 11
198.594
 21
75.0492
 31
0.0
  0
LINE
  8
0
 62
     0
 10
198.594
 20
75.0492
 30
0.0
 11
198.594
 21
61.05
 31
0.0
  0
LINE
  8
0
 62
     0
 10
198.594
 20
61.05
 30
0.0
 11
184.595
 21
61.05
 31
0.0
  0
LINE
  8
0
 62
     0
 10
184.595
 20
61.05
 30
0.0
 11
184.595
 21
75.0492
 31
0.0
  0
LINE
  8
0
 62
     0
 10
203.645
 20
75.0492
 30
0.0
 11
217.644
 21
75.0492
 31
0.0
  0
LINE
  8
0
 62
     0
 10
217.644
 20
75.0492
 30
0.0
 11
217.644
 21
61.05
 31
0.0
  0
LINE
  8
0
 62
     0
 10
217.644
 20
61.05
 30
0.0
 11
203.645
 21
61.05
 31
0.0
  0
LINE
  8
0
 62
     0
 10
203.645
 20
61.05
 30
0.0
 11
203.645
 21
75.0492
 31
0.0
  0
LINE
  8
0
 62
     0
 10
222.695
 20
75.0492
 30
0.0
 11
236.694
 21
75.0492
 31
0.0
  0
LINE
  8
0
 62
     0
 10
236.694
 20
75.0492
 30
0.0
 11
236.694
 21
61.05
 31
0.0
  0
LINE
  8
0
 62
     0
 10
236.694
 20
61.05
 30
0.0
 11
222.695
 21
61.05
 31
0.0
  0
LINE
  8
0
 62
     0
 10
222.695
 20
61.05
 30
0.0
 11
222.695
 21
75.0492
 31
0.0
  0
LINE
  8
0
 62
     0
 10
241.745
 20
75.0492
 30
0.0
 11
255.743
 21
75.0492
 31
0.0
  0
LINE
  8
0
 62
     0
 10
255.743
 20
75.0492
 30
0.0
 11
255.743
 21
61.05
 31
0.0
  0
LINE
  8
0
 62
     0
 10
255.743
 20
61.05
 30
0.0
 11
241.745
 21
61.05
 31
0.0
  0
LINE
  8
0
 62
     0
 10
241.745
 20
61.05
 30
0.0
 11
241.745
 21
75.0492
 31
0.0
  0
LINE
  8
0
 62
     0
 10
260.795
 20
75.0492
 30
0.0
 11
274.794
 21
75.0492
 31
0.0
  0
LINE
  8
0
 62
     0
 10
274.794
 20
75.0492
 30
0.0
 11
274.794
 21
61.05
 31
0.0
  0
LINE
  8
0
 62
     0
 10
274.794
 20
61.05
 30
0.0
 11
260.795
 21
61.05
 31
0.0
  0
LINE
  8
0
 62
     0
 10
260.795
 20
61.05
 30
0.0
 11
260.795
 21
75.0492
 31
0.0
  0
LINE
  8
0
 62
     0
 10
3.6201
 20
94.0992
 30
0.0
 11
17.6196
 21
94.0992
 31
0.0
  0
LINE
  8
0
 62
     0
 10
17.6196
 20
94.0992
 30
0.0
 11
17.6196
 21
80.1
 31
0.0
  0
LINE
  8
0
 62
     0
 10
17.6196
 20
80.1
 30
0.0
 11
3.6201
 21
80.1
 31
0.0
  0
LINE
  8
0
 62
     0
 10
3.6201
 20
80.1
 30
0.0
 11
3.6201
 21
94.0992
 31
0.0
  0
LINE
  8
0
 62
     0
 10
22.6701
 20
94.0992
 30
0.0
 11
36.6695
 21
94.0992
 31
0.0
  0
LINE
  8
0
 62
     0
 10
36.6695
 20
94.0992
 30
0.0
 11
36.6695
 21
80.1
 31
0.0
  0
LINE
  8
0
 62
     0
 10
36.6695
 20
80.1
 30
0.0
 11
22.6701
 21
80.1
 31
0.0
  0
LINE
  8
0
 62
     0
 10
22.6701
 20
80.1
 30
0.0
 11
22.6701
 21
94.0992
 31
0.0
  0
LINE
  8
0
 62
     0
 10
41.7202
 20
94.0992
 30
0.0
 11
55.7195
 21
94.0992
 31
0.0
  0
LINE
  8
0
 62
     0
 10
55.7195
 20
94.0992
 30
0.0
 11
55.7195
 21
80.1
 31
0.0
  0
LINE
  8
0
 62
     0
 10
55.7195
 20
80.1
 30
0.0
 11
41.7202
 21
80.1
 31
0.0
  0
LINE
  8
0
 62
     0
 10
41.7202
 20
80.1
 30
0.0
 11
41.7202
 21
94.0992
 31
0.0
  0
LINE
  8
0
 62
     0
 10
60.7702
 20
94.0992
 30
0.0
 11
74.7695
 21
94.0992
 31
0.0
  0
LINE
  8
0
 62
     0
 10
74.7695
 20
94.0992
 30
0.0
 11
74.7695
 21
80.1
 31
0.0
  0
LINE
  8
0
 62
     0
 10
74.7695
 20
80.1
 30
0.0
 11
60.7702
 21
80.1
 31
0.0
  0
LINE
  8
0
 62
     0
 10
60.7702
 20
80.1
 30
0.0
 11
60.7702
 21
94.0992
 31
0.0
  0
LINE
  8
0
 62
     0
 10
79.8202
 20
94.0992
 30
0.0
 11
93.8195
 21
94.0992
 31
0.0
  0
LINE
  8
0
 62
     0
 10
93.8195
 20
94.0992
 30
0.0
 11
93.8195
 21
80.1
 31
0.0
  0
LINE
  8
0
 62
     0
 10
93.8195
 20
80.1
 30
0.0
 11
79.8202
 21
80.1
 31
0.0
  0
LINE
  8
0
 62
     0
 10
79.8202
 20
80.1
 30
0.0
 11
79.8202
 21
94.0992
 31
0.0
  0
LINE
  8
0
 62
     0
 10
98.8688
 20
94.0992
 30
0.0
 11
112.868
 21
94.0992
 31
0.0
  0
LINE
  8
0
 62
     0
 10
112.868
 20
94.0992
 30
0.0
 11
112.868
 21
80.1
 31
0.0
  0
LINE
  8
0
 62
     0
 10
112.868
 20
80.1
 30
0.0
 11
98.8688
 21
80.1
 31
0.0
  0
LINE
  8
0
 62
     0
 10
98.8688
 20
80.1
 30
0.0
 11
98.8688
 21
94.0992
 31
0.0
  0
LINE
  8
0
 62
     0
 10
117.919
 20
94.0992
 30
0.0
 11
131.919
 21
94.0992
 31
0.0
  0
LINE
  8
0
 62
     0
 10
131.919
 20
94.0992
 30
0.0
 11
131.919
 21
80.1
 31
0.0
  0
LINE
  8
0
 62
     0
 10
131.919
 20
80.1
 30
0.0
 11
117.919
 21
80.1
 31
0.0
  0
LINE
  8
0
 62
     0
 10
117.919
 20
80.1
 30
0.0
 11
117.919
 21
94.0992
 31
0.0
  0
LINE
  8
0
 62
     0
 10
136.97
 20
94.0992
 30
0.0
 11
150.969
 21
94.0992
 31
0.0
  0
LINE
  8
0
 62
     0
 10
150.969
 20
94.0992
 30
0.0
 11
150.969
 21
80.1
 31
0.0
  0
LINE
  8
0
 62
     0
 10
150.969
 20
80.1
 30
0.0
 11
136.97
 21
80.1
 31
0.0
  0
LINE
  8
0
 62
     0
 10
136.97
 20
80.1
 30
0.0
 11
136.97
 21
94.0992
 31
0.0
  0
LINE
  8
0
 62
     0
 10
156.02
 20
94.0992
 30
0.0
 11
170.019
 21
94.0992
 31
0.0
  0
LINE
  8
0
 62
     0
 10
170.019
 20
94.0992
 30
0.0
 11
170.019
 21
80.1
 31
0.0
  0
LINE
  8
0
 62
     0
 10
170.019
 20
80.1
 30
0.0
 11
156.02
 21
80.1
 31
0.0
  0
LINE
  8
0
 62
     0
 10
156.02
 20
80.1
 30
0.0
 11
156.02
 21
94.0992
 31
0.0
  0
LINE
  8
0
 62
     0
 10
175.07
 20
94.0992
 30
0.0
 11
189.069
 21
94.0992
 31
0.0
  0
LINE
  8
0
 62
     0
 10
189.069
 20
94.0992
 30
0.0
 11
189.069
 21
80.1
 31
0.0
  0
LINE
  8
0
 62
     0
 10
189.069
 20
80.1
 30
0.0
 11
175.07
 21
80.1
 31
0.0
  0
LINE
  8
0
 62
     0
 10
175.07
 20
80.1
 30
0.0
 11
175.07
 21
94.0992
 31
0.0
  0
LINE
  8
0
 62
     0
 10
194.12
 20
94.0992
 30
0.0
 11
208.119
 21
94.0992
 31
0.0
  0
LINE
  8
0
 62
     0
 10
208.119
 20
94.0992
 30
0.0
 11
208.119
 21
80.1
 31
0.0
  0
LINE
  8
0
 62
     0
 10
208.119
 20
80.1
 30
0.0
 11
194.12
 21
80.1
 31
0.0
  0
LINE
  8
0
 62
     0
 10
194.12
 20
80.1
 30
0.0
 11
194.12
 21
94.0992
 31
0.0
  0
LINE
  8
0
 62
     0
 10
213.17
 20
94.0992
 30
0.0
 11
227.169
 21
94.0992
 31
0.0
  0
LINE
  8
0
 62
     0
 10
227.169
 20
94.0992
 30
0.0
 11
227.169
 21
80.1
 31
0.0
  0
LINE
  8
0
 62
     0
 10
227.169
 20
80.1
 30
0.0
 11
213.17
 21
80.1
 31
0.0
  0
LINE
  8
0
 62
     0
 10
213.17
 20
80.1
 30
0.0
 11
213.17
 21
94.0992
 31
0.0
  0
LINE
  8
0
 62
     0
 10
232.22
 20
94.0992
 30
0.0
 11
246.219
 21
94.0992
 31
0.0
  0
LINE
  8
0
 62
     0
 10
246.219
 20
94.0992
 30
0.0
 11
246.219
 21
80.1
 31
0.0
  0
LINE
  8
0
 62
     0
 10
246.219
 20
80.1
 30
0.0
 11
232.22
 21
80.1
 31
0.0
  0
LINE
  8
0
 62
     0
 10
232.22
 20
80.1
 30
0.0
 11
232.22
 21
94.0992
 31
0.0
  0
LINE
  8
0
 62
     0
 10
256.031
 20
94.0992
 30
0.0
 11
270.032
 21
94.0992
 31
0.0
  0
LINE
  8
0
 62
     0
 10
270.032
 20
94.0992
 30
0.0
 11
270.032
 21
80.1
 31
0.0
  0
LINE
  8
0
 62
     0
 10
270.032
 20
80.1
 30
0.0
 11
256.031
 21
80.1
 31
0.0
  0
LINE
  8
0
 62
     0
 10
256.031
 20
80.1
 30
0.0
 11
256.031
 21
94.0992
 31
0.0
  0
LINE
  8
0
 62
     0
 10
3.6201
 20
113.149
 30
0.0
 11
17.6196
 21
113.149
 31
0.0
  0
LINE
  8
0
 62
     0
 10
17.6196
 20
113.149
 30
0.0
 11
17.6196
 21
99.15
 31
0.0
  0
LINE
  8
0
 62
     0
 10
17.6196
 20
99.15
 30
0.0
 11
3.6201
 21
99.15
 31
0.0
  0
LINE
  8
0
 62
     0
 10
3.6201
 20
99.15
 30
0.0
 11
3.6201
 21
113.149
 31
0.0
  0
LINE
  8
0
 62
     0
 10
22.6701
 20
113.149
 30
0.0
 11
36.6695
 21
113.149
 31
0.0
  0
LINE
  8
0
 62
     0
 10
36.6695
 20
113.149
 30
0.0
 11
36.6695
 21
99.15
 31
0.0
  0
LINE
  8
0
 62
     0
 10
36.6695
 20
99.15
 30
0.0
 11
22.6701
 21
99.15
 31
0.0
  0
LINE
  8
0
 62
     0
 10
22.6701
 20
99.15
 30
0.0
 11
22.6701
 21
113.149
 31
0.0
  0
LINE
  8
0
 62
     0
 10
41.7202
 20
113.149
 30
0.0
 11
55.7195
 21
113.149
 31
0.0
  0
LINE
  8
0
 62
     0
 10
55.7195
 20
113.149
 30
0.0
 11
55.7195
 21
99.15
 31
0.0
  0
LINE
  8
0
 62
     0
 10
55.7195
 20
99.15
 30
0.0
 11
41.7202
 21
99.15
 31
0.0
  0
LINE
  8
0
 62
     0
 10
41.7202
 20
99.15
 30
0.0
 11
41.7202
 21
113.149
 31
0.0
  0
LINE
  8
0
 62
     0
 10
60.7702
 20
113.149
 30
0.0
 11
74.7695
 21
113.149
 31
0.0
  0
LINE
  8
0
 62
     0
 10
74.7695
 20
113.149
 30
0.0
 11
74.7695
 21
99.15
 31
0.0
  0
LINE
  8
0
 62
     0
 10
74.7695
 20
99.15
 30
0.0
 11
60.7702
 21
99.15
 31
0.0
  0
LINE
  8
0
 62
     0
 10
60.7702
 20
99.15
 30
0.0
 11
60.7702
 21
113.149
 31
0.0
  0
LINE
  8
0
 62
     0
 10
79.8202
 20
113.149
 30
0.0
 11
93.8195
 21
113.149
 31
0.0
  0
LINE
  8
0
 62
     0
 10
93.8195
 20
113.149
 30
0.0
 11
93.8195
 21
99.15
 31
0.0
  0
LINE
  8
0
 62
     0
 10
93.8195
 20
99.15
 30
0.0
 11
79.8202
 21
99.15
 31
0.0
  0
LINE
  8
0
 62
     0
 10
79.8202
 20
99.15
 30
0.0
 11
79.8202
 21
113.149
 31
0.0
  0
LINE
  8
0
 62
     0
 10
98.8688
 20
113.149
 30
0.0
 11
112.868
 21
113.149
 31
0.0
  0
LINE
  8
0
 62
     0
 10
112.868
 20
113.149
 30
0.0
 11
112.868
 21
99.15
 31
0.0
  0
LINE
  8
0
 62
     0
 10
112.868
 20
99.15
 30
0.0
 11
98.8688
 21
99.15
 31
0.0
  0
LINE
  8
0
 62
     0
 10
98.8688
 20
99.15
 30
0.0
 11
98.8688
 21
113.149
 31
0.0
  0
LINE
  8
0
 62
     0
 10
117.919
 20
113.149
 30
0.0
 11
131.919
 21
113.149
 31
0.0
  0
LINE
  8
0
 62
     0
 10
131.919
 20
113.149
 30
0.0
 11
131.919
 21
99.15
 31
0.0
  0
LINE
  8
0
 62
     0
 10
131.919
 20
99.15
 30
0.0
 11
117.919
 21
99.15
 31
0.0
  0
LINE
  8
0
 62
     0
 10
117.919
 20
99.15
 30
0.0
 11
117.919
 21
113.149
 31
0.0
  0
LINE
  8
0
 62
     0
 10
136.97
 20
113.149
 30
0.0
 11
150.969
 21
113.149
 31
0.0
  0
LINE
  8
0
 62
     0
 10
150.969
 20
113.149
 30
0.0
 11
150.969
 21
99.15
 31
0.0
  0
LINE
  8
0
 62
     0
 10
150.969
 20
99.15
 30
0.0
 11
136.97
 21
99.15
 31
0.0
  0
LINE
  8
0
 62
     0
 10
136.97
 20
99.15
 30
0.0
 11
136.97
 21
113.149
 31
0.0
  0
LINE
  8
0
 62
     0
 10
156.02
 20
113.149
 30
0.0
 11
170.019
 21
113.149
 31
0.0
  0
LINE
  8
0
 62
     0
 10
170.019
 20
113.149
 30
0.0
 11
170.019
 21
99.15
 31
0.0
  0
LINE
  8
0
 62
     0
 10
170.019
 20
99.15
 30
0.0
 11
156.02
 21
99.15
 31
0.0
  0
LINE
  8
0
 62
     0
 10
156.02
 20
99.15
 30
0.0
 11
156.02
 21
113.149
 31
0.0
  0
LINE
  8
0
 62
     0
 10
175.07
 20
113.149
 30
0.0
 11
189.069
 21
113.149
 31
0.0
  0
LINE
  8
0
 62
     0
 10
189.069
 20
113.149
 30
0.0
 11
189.069
 21
99.15
 31
0.0
  0
LINE
  8
0
 62
     0
 10
189.069
 20
99.15
 30
0.0
 11
175.07
 21
99.15
 31
0.0
  0
LINE
  8
0
 62
     0
 10
175.07
 20
99.15
 30
0.0
 11
175.07
 21
113.149
 31
0.0
  0
LINE
  8
0
 62
     0
 10
194.12
 20
113.149
 30
0.0
 11
208.119
 21
113.149
 31
0.0
  0
LINE
  8
0
 62
     0
 10
208.119
 20
113.149
 30
0.0
 11
208.119
 21
99.15
 31
0.0
  0
LINE
  8
0
 62
     0
 10
208.119
 20
99.15
 30
0.0
 11
194.12
 21
99.15
 31
0.0
  0
LINE
  8
0
 62
     0
 10
194.12
 20
99.15
 30
0.0
 11
194.12
 21
113.149
 31
0.0
  0
LINE
  8
0
 62
     0
 10
213.17
 20
113.149
 30
0.0
 11
227.169
 21
113.149
 31
0.0
  0
LINE
  8
0
 62
     0
 10
227.169
 20
113.149
 30
0.0
 11
227.169
 21
99.15
 31
0.0
  0
LINE
  8
0
 62
     0
 10
227.169
 20
99.15
 30
0.0
 11
213.17
 21
99.15
 31
0.0
  0
LINE
  8
0
 62
     0
 10
213.17
 20
99.15
 30
0.0
 11
213.17
 21
113.149
 31
0.0
  0
LINE
  8
0
 62
     0
 10
232.22
 20
113.149
 30
0.0
 11
246.219
 21
113.149
 31
0.0
  0
LINE
  8
0
 62
     0
 10
246.219
 20
113.149
 30
0.0
 11
246.219
 21
99.15
 31
0.0
  0
LINE
  8
0
 62
     0
 10
246.219
 20
99.15
 30
0.0
 11
232.22
 21
99.15
 31
0.0
  0
LINE
  8
0
 62
     0
 10
232.22
 20
99.15
 30
0.0
 11
232.22
 21
113.149
 31
0.0
  0
LINE
  8
0
 62
     0
 10
256.031
 20
113.149
 30
0.0
 11
270.032
 21
113.149
 31
0.0
  0
LINE
  8
0
 62
     0
 10
270.032
 20
113.149
 30
0.0
 11
270.032
 21
99.15
 31
0.0
  0
LINE
  8
0
 62
     0
 10
270.032
 20
99.15
 30
0.0
 11
256.031
 21
99.15
 31
0.0
  0
LINE
  8
0
 62
     0
 10
256.031
 20
99.15
 30
0.0
 11
256.031
 21
113.149
 31
0.0
  0
ENDSEC
  0
EOF
