  0
SECTION
  2
HEADER
  9
$ACADVER
  1
AC1009
  9
$FILLMODE
 70
 0
  9
$SPLFRAME
 70
 1
  9
$EXTMIN
 10
0
 20
0
 30
0.0
  9
$EXTMAX
 10
1058.33
 20
1058.33
 30
0.0
  0
ENDSEC
  0
SECTION
  2
TABLES
  0
TABLE
  2
LAYER
 70
1
  0
LAYER
  2
0
 70
     0
 62
     7
  6
CONTINUOUS
  0
ENDTAB
  0
ENDSEC
  0
SECTION
  2
ENTITIES
  0
LINE
  8
0
 62
     0
 10
274.322
 20
114.558
 30
0.0
 11
274.478
 21
114.551
 31
0.0
  0
LINE
  8
0
 62
     0
 10
274.478
 20
114.551
 30
0.0
 11
274.633
 21
114.533
 31
0.0
  0
LINE
  8
0
 62
     0
 10
274.633
 20
114.533
 30
0.0
 11
274.788
 21
114.502
 31
0.0
  0
LINE
  8
0
 62
     0
 10
274.788
 20
114.502
 30
0.0
 11
274.939
 21
114.46
 31
0.0
  0
LINE
  8
0
 62
     0
 10
274.939
 20
114.46
 30
0.0
 11
275.087
 21
114.405
 31
0.0
  0
LINE
  8
0
 62
     0
 10
275.087
 20
114.405
 30
0.0
 11
275.229
 21
114.34
 31
0.0
  0
LINE
  8
0
 62
     0
 10
275.229
 20
114.34
 30
0.0
 11
275.365
 21
114.263
 31
0.0
  0
LINE
  8
0
 62
     0
 10
275.365
 20
114.263
 30
0.0
 11
275.496
 21
114.176
 31
0.0
  0
LINE
  8
0
 62
     0
 10
275.496
 20
114.176
 30
0.0
 11
275.62
 21
114.078
 31
0.0
  0
LINE
  8
0
 62
     0
 10
275.62
 20
114.078
 30
0.0
 11
275.736
 21
113.972
 31
0.0
  0
LINE
  8
0
 62
     0
 10
275.736
 20
113.972
 30
0.0
 11
275.842
 21
113.856
 31
0.0
  0
LINE
  8
0
 62
     0
 10
275.842
 20
113.856
 30
0.0
 11
275.94
 21
113.734
 31
0.0
  0
LINE
  8
0
 62
     0
 10
275.94
 20
113.734
 30
0.0
 11
276.027
 21
113.603
 31
0.0
  0
LINE
  8
0
 62
     0
 10
276.027
 20
113.603
 30
0.0
 11
276.104
 21
113.465
 31
0.0
  0
LINE
  8
0
 62
     0
 10
276.104
 20
113.465
 30
0.0
 11
276.169
 21
113.323
 31
0.0
  0
LINE
  8
0
 62
     0
 10
276.169
 20
113.323
 30
0.0
 11
276.224
 21
113.177
 31
0.0
  0
LINE
  8
0
 62
     0
 10
276.224
 20
113.177
 30
0.0
 11
276.265
 21
113.024
 31
0.0
  0
LINE
  8
0
 62
     0
 10
276.265
 20
113.024
 30
0.0
 11
276.297
 21
112.871
 31
0.0
  0
LINE
  8
0
 62
     0
 10
276.297
 20
112.871
 30
0.0
 11
276.315
 21
112.714
 31
0.0
  0
LINE
  8
0
 62
     0
 10
276.315
 20
112.714
 30
0.0
 11
276.321
 21
112.557
 31
0.0
  0
LINE
  8
0
 62
     0
 10
276.321
 20
112.557
 30
0.0
 11
276.321
 21
2.25723
 31
0.0
  0
LINE
  8
0
 62
     0
 10
276.321
 20
2.25723
 30
0.0
 11
276.315
 21
2.10013
 31
0.0
  0
LINE
  8
0
 62
     0
 10
276.315
 20
2.10013
 30
0.0
 11
276.297
 21
1.94441
 31
0.0
  0
LINE
  8
0
 62
     0
 10
276.297
 20
1.94441
 30
0.0
 11
276.265
 21
1.79007
 31
0.0
  0
LINE
  8
0
 62
     0
 10
276.265
 20
1.79007
 30
0.0
 11
276.224
 21
1.63849
 31
0.0
  0
LINE
  8
0
 62
     0
 10
276.224
 20
1.63849
 30
0.0
 11
276.169
 21
1.49104
 31
0.0
  0
LINE
  8
0
 62
     0
 10
276.169
 20
1.49104
 30
0.0
 11
276.104
 21
1.3491
 31
0.0
  0
LINE
  8
0
 62
     0
 10
276.104
 20
1.3491
 30
0.0
 11
276.027
 21
1.21267
 31
0.0
  0
LINE
  8
0
 62
     0
 10
276.027
 20
1.21267
 30
0.0
 11
275.94
 21
1.08176
 31
0.0
  0
LINE
  8
0
 62
     0
 10
275.94
 20
1.08176
 30
0.0
 11
275.842
 21
0.957735
 31
0.0
  0
LINE
  8
0
 62
     0
 10
275.842
 20
0.957735
 30
0.0
 11
275.736
 21
0.841982
 31
0.0
  0
LINE
  8
0
 62
     0
 10
275.736
 20
0.841982
 30
0.0
 11
275.62
 21
0.735873
 31
0.0
  0
LINE
  8
0
 62
     0
 10
275.62
 20
0.735873
 30
0.0
 11
275.496
 21
0.63803
 31
0.0
  0
LINE
  8
0
 62
     0
 10
275.496
 20
0.63803
 30
0.0
 11
275.365
 21
0.551215
 31
0.0
  0
LINE
  8
0
 62
     0
 10
275.365
 20
0.551215
 30
0.0
 11
275.229
 21
0.474045
 31
0.0
  0
LINE
  8
0
 62
     0
 10
275.229
 20
0.474045
 30
0.0
 11
275.087
 21
0.409279
 31
0.0
  0
LINE
  8
0
 62
     0
 10
275.087
 20
0.409279
 30
0.0
 11
274.939
 21
0.354157
 31
0.0
  0
LINE
  8
0
 62
     0
 10
274.939
 20
0.354157
 30
0.0
 11
274.788
 21
0.312815
 31
0.0
  0
LINE
  8
0
 62
     0
 10
274.788
 20
0.312815
 30
0.0
 11
274.633
 21
0.28112
 31
0.0
  0
LINE
  8
0
 62
     0
 10
274.633
 20
0.28112
 30
0.0
 11
274.478
 21
0.263205
 31
0.0
  0
LINE
  8
0
 62
     0
 10
274.478
 20
0.263205
 30
0.0
 11
274.321
 21
0.257693
 31
0.0
  0
LINE
  8
0
 62
     0
 10
274.321
 20
0.257693
 30
0.0
 11
2.096
 21
0.257693
 31
0.0
  0
LINE
  8
0
 62
     0
 10
2.096
 20
0.257693
 30
0.0
 11
1.9389
 21
0.263205
 31
0.0
  0
LINE
  8
0
 62
     0
 10
1.9389
 20
0.263205
 30
0.0
 11
1.7818
 21
0.28112
 31
0.0
  0
LINE
  8
0
 62
     0
 10
1.7818
 20
0.28112
 30
0.0
 11
1.62884
 21
0.312815
 31
0.0
  0
LINE
  8
0
 62
     0
 10
1.62884
 20
0.312815
 30
0.0
 11
1.47588
 21
0.354157
 31
0.0
  0
LINE
  8
0
 62
     0
 10
1.47588
 20
0.354157
 30
0.0
 11
1.32981
 21
0.409279
 31
0.0
  0
LINE
  8
0
 62
     0
 10
1.32981
 20
0.409279
 30
0.0
 11
1.18787
 21
0.474045
 31
0.0
  0
LINE
  8
0
 62
     0
 10
1.18787
 20
0.474045
 30
0.0
 11
1.05006
 21
0.551215
 31
0.0
  0
LINE
  8
0
 62
     0
 10
1.05006
 20
0.551215
 30
0.0
 11
0.919152
 21
0.63803
 31
0.0
  0
LINE
  8
0
 62
     0
 10
0.919152
 20
0.63803
 30
0.0
 11
0.796505
 21
0.735873
 31
0.0
  0
LINE
  8
0
 62
     0
 10
0.796505
 20
0.735873
 30
0.0
 11
0.680752
 21
0.841982
 31
0.0
  0
LINE
  8
0
 62
     0
 10
0.680752
 20
0.841982
 30
0.0
 11
0.574643
 21
0.957735
 31
0.0
  0
LINE
  8
0
 62
     0
 10
0.574643
 20
0.957735
 30
0.0
 11
0.4768
 21
1.08176
 31
0.0
  0
LINE
  8
0
 62
     0
 10
0.4768
 20
1.08176
 30
0.0
 11
0.389985
 21
1.21267
 31
0.0
  0
LINE
  8
0
 62
     0
 10
0.389985
 20
1.21267
 30
0.0
 11
0.312815
 21
1.3491
 31
0.0
  0
LINE
  8
0
 62
     0
 10
0.312815
 20
1.3491
 30
0.0
 11
0.248047
 21
1.49104
 31
0.0
  0
LINE
  8
0
 62
     0
 10
0.248047
 20
1.49104
 30
0.0
 11
0.192925
 21
1.63849
 31
0.0
  0
LINE
  8
0
 62
     0
 10
0.192925
 20
1.63849
 30
0.0
 11
0.150206
 21
1.79007
 31
0.0
  0
LINE
  8
0
 62
     0
 10
0.150206
 20
1.79007
 30
0.0
 11
0.119889
 21
1.94441
 31
0.0
  0
LINE
  8
0
 62
     0
 10
0.119889
 20
1.94441
 30
0.0
 11
0.101975
 21
2.10013
 31
0.0
  0
LINE
  8
0
 62
     0
 10
0.101975
 20
2.10013
 30
0.0
 11
0.0950846
 21
2.25585
 31
0.0
  0
LINE
  8
0
 62
     0
 10
0.0950846
 20
2.25585
 30
0.0
 11
0.0950846
 21
112.557
 31
0.0
  0
LINE
  8
0
 62
     0
 10
0.0950846
 20
112.557
 30
0.0
 11
0.101975
 21
112.714
 31
0.0
  0
LINE
  8
0
 62
     0
 10
0.101975
 20
112.714
 30
0.0
 11
0.119889
 21
112.871
 31
0.0
  0
LINE
  8
0
 62
     0
 10
0.119889
 20
112.871
 30
0.0
 11
0.150206
 21
113.024
 31
0.0
  0
LINE
  8
0
 62
     0
 10
0.150206
 20
113.024
 30
0.0
 11
0.192925
 21
113.177
 31
0.0
  0
LINE
  8
0
 62
     0
 10
0.192925
 20
113.177
 30
0.0
 11
0.248047
 21
113.323
 31
0.0
  0
LINE
  8
0
 62
     0
 10
0.248047
 20
113.323
 30
0.0
 11
0.312815
 21
113.465
 31
0.0
  0
LINE
  8
0
 62
     0
 10
0.312815
 20
113.465
 30
0.0
 11
0.389985
 21
113.603
 31
0.0
  0
LINE
  8
0
 62
     0
 10
0.389985
 20
113.603
 30
0.0
 11
0.4768
 21
113.734
 31
0.0
  0
LINE
  8
0
 62
     0
 10
0.4768
 20
113.734
 30
0.0
 11
0.574643
 21
113.856
 31
0.0
  0
LINE
  8
0
 62
     0
 10
0.574643
 20
113.856
 30
0.0
 11
0.680752
 21
113.972
 31
0.0
  0
LINE
  8
0
 62
     0
 10
0.680752
 20
113.972
 30
0.0
 11
0.796505
 21
114.078
 31
0.0
  0
LINE
  8
0
 62
     0
 10
0.796505
 20
114.078
 30
0.0
 11
0.919152
 21
114.176
 31
0.0
  0
LINE
  8
0
 62
     0
 10
0.919152
 20
114.176
 30
0.0
 11
1.05006
 21
114.263
 31
0.0
  0
LINE
  8
0
 62
     0
 10
1.05006
 20
114.263
 30
0.0
 11
1.18787
 21
114.34
 31
0.0
  0
LINE
  8
0
 62
     0
 10
1.18787
 20
114.34
 30
0.0
 11
1.32981
 21
114.405
 31
0.0
  0
LINE
  8
0
 62
     0
 10
1.32981
 20
114.405
 30
0.0
 11
1.47588
 21
114.46
 31
0.0
  0
LINE
  8
0
 62
     0
 10
1.47588
 20
114.46
 30
0.0
 11
1.62884
 21
114.502
 31
0.0
  0
LINE
  8
0
 62
     0
 10
1.62884
 20
114.502
 30
0.0
 11
1.7818
 21
114.533
 31
0.0
  0
LINE
  8
0
 62
     0
 10
1.7818
 20
114.533
 30
0.0
 11
1.9389
 21
114.551
 31
0.0
  0
LINE
  8
0
 62
     0
 10
1.9389
 20
114.551
 30
0.0
 11
2.096
 21
114.558
 31
0.0
  0
LINE
  8
0
 62
     0
 10
2.096
 20
114.558
 30
0.0
 11
274.322
 21
114.558
 31
0.0
  0
LINE
  8
0
 62
     0
 10
79.4149
 20
16.2333
 30
0.0
 11
82.714
 21
16.2333
 31
0.0
  0
LINE
  8
0
 62
     0
 10
82.714
 20
16.2333
 30
0.0
 11
82.714
 21
2.03261
 31
0.0
  0
LINE
  8
0
 62
     0
 10
82.714
 20
2.03261
 30
0.0
 11
79.4149
 21
2.03261
 31
0.0
  0
LINE
  8
0
 62
     0
 10
79.4149
 20
2.03261
 30
0.0
 11
79.4149
 21
16.2333
 31
0.0
  0
LINE
  8
0
 62
     0
 10
184.175
 20
16.2333
 30
0.0
 11
187.475
 21
16.2333
 31
0.0
  0
LINE
  8
0
 62
     0
 10
187.475
 20
16.2333
 30
0.0
 11
187.475
 21
2.03261
 31
0.0
  0
LINE
  8
0
 62
     0
 10
187.475
 20
2.03261
 30
0.0
 11
184.175
 21
2.03261
 31
0.0
  0
LINE
  8
0
 62
     0
 10
184.175
 20
2.03261
 30
0.0
 11
184.175
 21
16.2333
 31
0.0
  0
LINE
  8
0
 62
     0
 10
5.00091
 20
16.7831
 30
0.0
 11
19.0018
 21
16.7831
 31
0.0
  0
LINE
  8
0
 62
     0
 10
19.0018
 20
16.7831
 30
0.0
 11
19.0018
 21
2.78364
 31
0.0
  0
LINE
  8
0
 62
     0
 10
19.0018
 20
2.78364
 30
0.0
 11
5.00091
 21
2.78364
 31
0.0
  0
LINE
  8
0
 62
     0
 10
5.00091
 20
2.78364
 30
0.0
 11
5.00091
 21
16.7831
 31
0.0
  0
LINE
  8
0
 62
     0
 10
28.8134
 20
16.7831
 30
0.0
 11
42.8128
 21
16.7831
 31
0.0
  0
LINE
  8
0
 62
     0
 10
42.8128
 20
16.7831
 30
0.0
 11
42.8128
 21
2.78364
 31
0.0
  0
LINE
  8
0
 62
     0
 10
42.8128
 20
2.78364
 30
0.0
 11
28.8134
 21
2.78364
 31
0.0
  0
LINE
  8
0
 62
     0
 10
28.8134
 20
2.78364
 30
0.0
 11
28.8134
 21
16.7831
 31
0.0
  0
LINE
  8
0
 62
     0
 10
52.626
 20
16.7831
 30
0.0
 11
66.6267
 21
16.7831
 31
0.0
  0
LINE
  8
0
 62
     0
 10
66.6267
 20
16.7831
 30
0.0
 11
66.6267
 21
2.78364
 31
0.0
  0
LINE
  8
0
 62
     0
 10
66.6267
 20
2.78364
 30
0.0
 11
52.626
 21
2.78364
 31
0.0
  0
LINE
  8
0
 62
     0
 10
52.626
 20
2.78364
 30
0.0
 11
52.626
 21
16.7831
 31
0.0
  0
LINE
  8
0
 62
     0
 10
126.446
 20
16.7831
 30
0.0
 11
140.445
 21
16.7831
 31
0.0
  0
LINE
  8
0
 62
     0
 10
140.445
 20
16.7831
 30
0.0
 11
140.445
 21
2.78364
 31
0.0
  0
LINE
  8
0
 62
     0
 10
140.445
 20
2.78364
 30
0.0
 11
126.446
 21
2.78364
 31
0.0
  0
LINE
  8
0
 62
     0
 10
126.446
 20
2.78364
 30
0.0
 11
126.446
 21
16.7831
 31
0.0
  0
LINE
  8
0
 62
     0
 10
200.263
 20
16.7831
 30
0.0
 11
214.263
 21
16.7831
 31
0.0
  0
LINE
  8
0
 62
     0
 10
214.263
 20
16.7831
 30
0.0
 11
214.263
 21
2.78364
 31
0.0
  0
LINE
  8
0
 62
     0
 10
214.263
 20
2.78364
 30
0.0
 11
200.263
 21
2.78364
 31
0.0
  0
LINE
  8
0
 62
     0
 10
200.263
 20
2.78364
 30
0.0
 11
200.263
 21
16.7831
 31
0.0
  0
LINE
  8
0
 62
     0
 10
221.696
 20
16.7831
 30
0.0
 11
235.695
 21
16.7831
 31
0.0
  0
LINE
  8
0
 62
     0
 10
235.695
 20
16.7831
 30
0.0
 11
235.695
 21
2.78364
 31
0.0
  0
LINE
  8
0
 62
     0
 10
235.695
 20
2.78364
 30
0.0
 11
221.696
 21
2.78364
 31
0.0
  0
LINE
  8
0
 62
     0
 10
221.696
 20
2.78364
 30
0.0
 11
221.696
 21
16.7831
 31
0.0
  0
LINE
  8
0
 62
     0
 10
240.746
 20
16.7831
 30
0.0
 11
254.744
 21
16.7831
 31
0.0
  0
LINE
  8
0
 62
     0
 10
254.744
 20
16.7831
 30
0.0
 11
254.744
 21
2.78364
 31
0.0
  0
LINE
  8
0
 62
     0
 10
254.744
 20
2.78364
 30
0.0
 11
240.746
 21
2.78364
 31
0.0
  0
LINE
  8
0
 62
     0
 10
240.746
 20
2.78364
 30
0.0
 11
240.746
 21
16.7831
 31
0.0
  0
LINE
  8
0
 62
     0
 10
259.796
 20
16.7831
 30
0.0
 11
273.795
 21
16.7831
 31
0.0
  0
LINE
  8
0
 62
     0
 10
273.795
 20
16.7831
 30
0.0
 11
273.795
 21
2.78364
 31
0.0
  0
LINE
  8
0
 62
     0
 10
273.795
 20
2.78364
 30
0.0
 11
259.796
 21
2.78364
 31
0.0
  0
LINE
  8
0
 62
     0
 10
259.796
 20
2.78364
 30
0.0
 11
259.796
 21
16.7831
 31
0.0
  0
LINE
  8
0
 62
     0
 10
7.97609
 20
35.2834
 30
0.0
 11
11.2765
 21
35.2834
 31
0.0
  0
LINE
  8
0
 62
     0
 10
11.2765
 20
35.2834
 30
0.0
 11
11.2765
 21
21.0826
 31
0.0
  0
LINE
  8
0
 62
     0
 10
11.2765
 20
21.0826
 30
0.0
 11
7.97609
 21
21.0826
 31
0.0
  0
LINE
  8
0
 62
     0
 10
7.97609
 20
21.0826
 30
0.0
 11
7.97609
 21
35.2834
 31
0.0
  0
LINE
  8
0
 62
     0
 10
31.7762
 20
35.2834
 30
0.0
 11
35.0766
 21
35.2834
 31
0.0
  0
LINE
  8
0
 62
     0
 10
35.0766
 20
35.2834
 30
0.0
 11
35.0766
 21
21.0826
 31
0.0
  0
LINE
  8
0
 62
     0
 10
35.0766
 20
21.0826
 30
0.0
 11
31.7762
 21
21.0826
 31
0.0
  0
LINE
  8
0
 62
     0
 10
31.7762
 20
21.0826
 30
0.0
 11
31.7762
 21
35.2834
 31
0.0
  0
LINE
  8
0
 62
     0
 10
14.5259
 20
35.8316
 30
0.0
 11
28.5268
 21
35.8316
 31
0.0
  0
LINE
  8
0
 62
     0
 10
28.5268
 20
35.8316
 30
0.0
 11
28.5268
 21
21.8323
 31
0.0
  0
LINE
  8
0
 62
     0
 10
28.5268
 20
21.8323
 30
0.0
 11
14.5259
 21
21.8323
 31
0.0
  0
LINE
  8
0
 62
     0
 10
14.5259
 20
21.8323
 30
0.0
 11
14.5259
 21
35.8316
 31
0.0
  0
LINE
  8
0
 62
     0
 10
45.4822
 20
35.8316
 30
0.0
 11
59.4829
 21
35.8316
 31
0.0
  0
LINE
  8
0
 62
     0
 10
59.4829
 20
35.8316
 30
0.0
 11
59.4829
 21
21.8323
 31
0.0
  0
LINE
  8
0
 62
     0
 10
59.4829
 20
21.8323
 30
0.0
 11
45.4822
 21
21.8323
 31
0.0
  0
LINE
  8
0
 62
     0
 10
45.4822
 20
21.8323
 30
0.0
 11
45.4822
 21
35.8316
 31
0.0
  0
LINE
  8
0
 62
     0
 10
64.5322
 20
35.8316
 30
0.0
 11
78.5329
 21
35.8316
 31
0.0
  0
LINE
  8
0
 62
     0
 10
78.5329
 20
35.8316
 30
0.0
 11
78.5329
 21
21.8323
 31
0.0
  0
LINE
  8
0
 62
     0
 10
78.5329
 20
21.8323
 30
0.0
 11
64.5322
 21
21.8323
 31
0.0
  0
LINE
  8
0
 62
     0
 10
64.5322
 20
21.8323
 30
0.0
 11
64.5322
 21
35.8316
 31
0.0
  0
LINE
  8
0
 62
     0
 10
83.5822
 20
35.8316
 30
0.0
 11
97.5829
 21
35.8316
 31
0.0
  0
LINE
  8
0
 62
     0
 10
97.5829
 20
35.8316
 30
0.0
 11
97.5829
 21
21.8323
 31
0.0
  0
LINE
  8
0
 62
     0
 10
97.5829
 20
21.8323
 30
0.0
 11
83.5822
 21
21.8323
 31
0.0
  0
LINE
  8
0
 62
     0
 10
83.5822
 20
21.8323
 30
0.0
 11
83.5822
 21
35.8316
 31
0.0
  0
LINE
  8
0
 62
     0
 10
102.632
 20
35.8316
 30
0.0
 11
116.633
 21
35.8316
 31
0.0
  0
LINE
  8
0
 62
     0
 10
116.633
 20
35.8316
 30
0.0
 11
116.633
 21
21.8323
 31
0.0
  0
LINE
  8
0
 62
     0
 10
116.633
 20
21.8323
 30
0.0
 11
102.632
 21
21.8323
 31
0.0
  0
LINE
  8
0
 62
     0
 10
102.632
 20
21.8323
 30
0.0
 11
102.632
 21
35.8316
 31
0.0
  0
LINE
  8
0
 62
     0
 10
121.682
 20
35.8316
 30
0.0
 11
135.683
 21
35.8316
 31
0.0
  0
LINE
  8
0
 62
     0
 10
135.683
 20
35.8316
 30
0.0
 11
135.683
 21
21.8323
 31
0.0
  0
LINE
  8
0
 62
     0
 10
135.683
 20
21.8323
 30
0.0
 11
121.682
 21
21.8323
 31
0.0
  0
LINE
  8
0
 62
     0
 10
121.682
 20
21.8323
 30
0.0
 11
121.682
 21
35.8316
 31
0.0
  0
LINE
  8
0
 62
     0
 10
140.732
 20
35.8316
 30
0.0
 11
154.733
 21
35.8316
 31
0.0
  0
LINE
  8
0
 62
     0
 10
154.733
 20
35.8316
 30
0.0
 11
154.733
 21
21.8323
 31
0.0
  0
LINE
  8
0
 62
     0
 10
154.733
 20
21.8323
 30
0.0
 11
140.732
 21
21.8323
 31
0.0
  0
LINE
  8
0
 62
     0
 10
140.732
 20
21.8323
 30
0.0
 11
140.732
 21
35.8316
 31
0.0
  0
LINE
  8
0
 62
     0
 10
159.782
 20
35.8316
 30
0.0
 11
173.783
 21
35.8316
 31
0.0
  0
LINE
  8
0
 62
     0
 10
173.783
 20
35.8316
 30
0.0
 11
173.783
 21
21.8323
 31
0.0
  0
LINE
  8
0
 62
     0
 10
173.783
 20
21.8323
 30
0.0
 11
159.782
 21
21.8323
 31
0.0
  0
LINE
  8
0
 62
     0
 10
159.782
 20
21.8323
 30
0.0
 11
159.782
 21
35.8316
 31
0.0
  0
LINE
  8
0
 62
     0
 10
178.832
 20
35.8316
 30
0.0
 11
192.833
 21
35.8316
 31
0.0
  0
LINE
  8
0
 62
     0
 10
192.833
 20
35.8316
 30
0.0
 11
192.833
 21
21.8323
 31
0.0
  0
LINE
  8
0
 62
     0
 10
192.833
 20
21.8323
 30
0.0
 11
178.832
 21
21.8323
 31
0.0
  0
LINE
  8
0
 62
     0
 10
178.832
 20
21.8323
 30
0.0
 11
178.832
 21
35.8316
 31
0.0
  0
LINE
  8
0
 62
     0
 10
197.882
 20
35.8316
 30
0.0
 11
211.883
 21
35.8316
 31
0.0
  0
LINE
  8
0
 62
     0
 10
211.883
 20
35.8316
 30
0.0
 11
211.883
 21
21.8323
 31
0.0
  0
LINE
  8
0
 62
     0
 10
211.883
 20
21.8323
 30
0.0
 11
197.882
 21
21.8323
 31
0.0
  0
LINE
  8
0
 62
     0
 10
197.882
 20
21.8323
 30
0.0
 11
197.882
 21
35.8316
 31
0.0
  0
LINE
  8
0
 62
     0
 10
216.932
 20
35.8316
 30
0.0
 11
230.933
 21
35.8316
 31
0.0
  0
LINE
  8
0
 62
     0
 10
230.933
 20
35.8316
 30
0.0
 11
230.933
 21
21.8323
 31
0.0
  0
LINE
  8
0
 62
     0
 10
230.933
 20
21.8323
 30
0.0
 11
216.932
 21
21.8323
 31
0.0
  0
LINE
  8
0
 62
     0
 10
216.932
 20
21.8323
 30
0.0
 11
216.932
 21
35.8316
 31
0.0
  0
LINE
  8
0
 62
     0
 10
235.982
 20
35.8316
 30
0.0
 11
249.983
 21
35.8316
 31
0.0
  0
LINE
  8
0
 62
     0
 10
249.983
 20
35.8316
 30
0.0
 11
249.983
 21
21.8323
 31
0.0
  0
LINE
  8
0
 62
     0
 10
249.983
 20
21.8323
 30
0.0
 11
235.982
 21
21.8323
 31
0.0
  0
LINE
  8
0
 62
     0
 10
235.982
 20
21.8323
 30
0.0
 11
235.982
 21
35.8316
 31
0.0
  0
LINE
  8
0
 62
     0
 10
257.413
 20
35.8316
 30
0.0
 11
271.413
 21
35.8316
 31
0.0
  0
LINE
  8
0
 62
     0
 10
271.413
 20
35.8316
 30
0.0
 11
271.413
 21
21.8323
 31
0.0
  0
LINE
  8
0
 62
     0
 10
271.413
 20
21.8323
 30
0.0
 11
257.413
 21
21.8323
 31
0.0
  0
LINE
  8
0
 62
     0
 10
257.413
 20
21.8323
 30
0.0
 11
257.413
 21
35.8316
 31
0.0
  0
LINE
  8
0
 62
     0
 10
9.76341
 20
54.8816
 30
0.0
 11
23.7629
 21
54.8816
 31
0.0
  0
LINE
  8
0
 62
     0
 10
23.7629
 20
54.8816
 30
0.0
 11
23.7629
 21
40.8824
 31
0.0
  0
LINE
  8
0
 62
     0
 10
23.7629
 20
40.8824
 30
0.0
 11
9.76341
 21
40.8824
 31
0.0
  0
LINE
  8
0
 62
     0
 10
9.76341
 20
40.8824
 30
0.0
 11
9.76341
 21
54.8816
 31
0.0
  0
LINE
  8
0
 62
     0
 10
35.9572
 20
54.8816
 30
0.0
 11
49.9579
 21
54.8816
 31
0.0
  0
LINE
  8
0
 62
     0
 10
49.9579
 20
54.8816
 30
0.0
 11
49.9579
 21
40.8824
 31
0.0
  0
LINE
  8
0
 62
     0
 10
49.9579
 20
40.8824
 30
0.0
 11
35.9572
 21
40.8824
 31
0.0
  0
LINE
  8
0
 62
     0
 10
35.9572
 20
40.8824
 30
0.0
 11
35.9572
 21
54.8816
 31
0.0
  0
LINE
  8
0
 62
     0
 10
55.0072
 20
54.8816
 30
0.0
 11
69.0079
 21
54.8816
 31
0.0
  0
LINE
  8
0
 62
     0
 10
69.0079
 20
54.8816
 30
0.0
 11
69.0079
 21
40.8824
 31
0.0
  0
LINE
  8
0
 62
     0
 10
69.0079
 20
40.8824
 30
0.0
 11
55.0072
 21
40.8824
 31
0.0
  0
LINE
  8
0
 62
     0
 10
55.0072
 20
40.8824
 30
0.0
 11
55.0072
 21
54.8816
 31
0.0
  0
LINE
  8
0
 62
     0
 10
74.0572
 20
54.8816
 30
0.0
 11
88.0579
 21
54.8816
 31
0.0
  0
LINE
  8
0
 62
     0
 10
88.0579
 20
54.8816
 30
0.0
 11
88.0579
 21
40.8824
 31
0.0
  0
LINE
  8
0
 62
     0
 10
88.0579
 20
40.8824
 30
0.0
 11
74.0572
 21
40.8824
 31
0.0
  0
LINE
  8
0
 62
     0
 10
74.0572
 20
40.8824
 30
0.0
 11
74.0572
 21
54.8816
 31
0.0
  0
LINE
  8
0
 62
     0
 10
93.1072
 20
54.8816
 30
0.0
 11
107.108
 21
54.8816
 31
0.0
  0
LINE
  8
0
 62
     0
 10
107.108
 20
54.8816
 30
0.0
 11
107.108
 21
40.8824
 31
0.0
  0
LINE
  8
0
 62
     0
 10
107.108
 20
40.8824
 30
0.0
 11
93.1072
 21
40.8824
 31
0.0
  0
LINE
  8
0
 62
     0
 10
93.1072
 20
40.8824
 30
0.0
 11
93.1072
 21
54.8816
 31
0.0
  0
LINE
  8
0
 62
     0
 10
112.157
 20
54.8816
 30
0.0
 11
126.158
 21
54.8816
 31
0.0
  0
LINE
  8
0
 62
     0
 10
126.158
 20
54.8816
 30
0.0
 11
126.158
 21
40.8824
 31
0.0
  0
LINE
  8
0
 62
     0
 10
126.158
 20
40.8824
 30
0.0
 11
112.157
 21
40.8824
 31
0.0
  0
LINE
  8
0
 62
     0
 10
112.157
 20
40.8824
 30
0.0
 11
112.157
 21
54.8816
 31
0.0
  0
LINE
  8
0
 62
     0
 10
131.207
 20
54.8816
 30
0.0
 11
145.208
 21
54.8816
 31
0.0
  0
LINE
  8
0
 62
     0
 10
145.208
 20
54.8816
 30
0.0
 11
145.208
 21
40.8824
 31
0.0
  0
LINE
  8
0
 62
     0
 10
145.208
 20
40.8824
 30
0.0
 11
131.207
 21
40.8824
 31
0.0
  0
LINE
  8
0
 62
     0
 10
131.207
 20
40.8824
 30
0.0
 11
131.207
 21
54.8816
 31
0.0
  0
LINE
  8
0
 62
     0
 10
150.257
 20
54.8816
 30
0.0
 11
164.258
 21
54.8816
 31
0.0
  0
LINE
  8
0
 62
     0
 10
164.258
 20
54.8816
 30
0.0
 11
164.258
 21
40.8824
 31
0.0
  0
LINE
  8
0
 62
     0
 10
164.258
 20
40.8824
 30
0.0
 11
150.257
 21
40.8824
 31
0.0
  0
LINE
  8
0
 62
     0
 10
150.257
 20
40.8824
 30
0.0
 11
150.257
 21
54.8816
 31
0.0
  0
LINE
  8
0
 62
     0
 10
169.307
 20
54.8816
 30
0.0
 11
183.308
 21
54.8816
 31
0.0
  0
LINE
  8
0
 62
     0
 10
183.308
 20
54.8816
 30
0.0
 11
183.308
 21
40.8824
 31
0.0
  0
LINE
  8
0
 62
     0
 10
183.308
 20
40.8824
 30
0.0
 11
169.307
 21
40.8824
 31
0.0
  0
LINE
  8
0
 62
     0
 10
169.307
 20
40.8824
 30
0.0
 11
169.307
 21
54.8816
 31
0.0
  0
LINE
  8
0
 62
     0
 10
188.357
 20
54.8816
 30
0.0
 11
202.358
 21
54.8816
 31
0.0
  0
LINE
  8
0
 62
     0
 10
202.358
 20
54.8816
 30
0.0
 11
202.358
 21
40.8824
 31
0.0
  0
LINE
  8
0
 62
     0
 10
202.358
 20
40.8824
 30
0.0
 11
188.357
 21
40.8824
 31
0.0
  0
LINE
  8
0
 62
     0
 10
188.357
 20
40.8824
 30
0.0
 11
188.357
 21
54.8816
 31
0.0
  0
LINE
  8
0
 62
     0
 10
207.407
 20
54.8816
 30
0.0
 11
221.408
 21
54.8816
 31
0.0
  0
LINE
  8
0
 62
     0
 10
221.408
 20
54.8816
 30
0.0
 11
221.408
 21
40.8824
 31
0.0
  0
LINE
  8
0
 62
     0
 10
221.408
 20
40.8824
 30
0.0
 11
207.407
 21
40.8824
 31
0.0
  0
LINE
  8
0
 62
     0
 10
207.407
 20
40.8824
 30
0.0
 11
207.407
 21
54.8816
 31
0.0
  0
LINE
  8
0
 62
     0
 10
226.457
 20
54.8816
 30
0.0
 11
240.458
 21
54.8816
 31
0.0
  0
LINE
  8
0
 62
     0
 10
240.458
 20
54.8816
 30
0.0
 11
240.458
 21
40.8824
 31
0.0
  0
LINE
  8
0
 62
     0
 10
240.458
 20
40.8824
 30
0.0
 11
226.457
 21
40.8824
 31
0.0
  0
LINE
  8
0
 62
     0
 10
226.457
 20
40.8824
 30
0.0
 11
226.457
 21
54.8816
 31
0.0
  0
LINE
  8
0
 62
     0
 10
252.651
 20
54.8816
 30
0.0
 11
266.652
 21
54.8816
 31
0.0
  0
LINE
  8
0
 62
     0
 10
266.652
 20
54.8816
 30
0.0
 11
266.652
 21
40.8824
 31
0.0
  0
LINE
  8
0
 62
     0
 10
266.652
 20
40.8824
 30
0.0
 11
252.651
 21
40.8824
 31
0.0
  0
LINE
  8
0
 62
     0
 10
252.651
 20
40.8824
 30
0.0
 11
252.651
 21
54.8816
 31
0.0
  0
LINE
  8
0
 62
     0
 10
7.38216
 20
73.9316
 30
0.0
 11
21.383
 21
73.9316
 31
0.0
  0
LINE
  8
0
 62
     0
 10
21.383
 20
73.9316
 30
0.0
 11
21.383
 21
59.9324
 31
0.0
  0
LINE
  8
0
 62
     0
 10
21.383
 20
59.9324
 30
0.0
 11
7.38216
 21
59.9324
 31
0.0
  0
LINE
  8
0
 62
     0
 10
7.38216
 20
59.9324
 30
0.0
 11
7.38216
 21
73.9316
 31
0.0
  0
LINE
  8
0
 62
     0
 10
31.196
 20
73.9316
 30
0.0
 11
45.1954
 21
73.9316
 31
0.0
  0
LINE
  8
0
 62
     0
 10
45.1954
 20
73.9316
 30
0.0
 11
45.1954
 21
59.9324
 31
0.0
  0
LINE
  8
0
 62
     0
 10
45.1954
 20
59.9324
 30
0.0
 11
31.196
 21
59.9324
 31
0.0
  0
LINE
  8
0
 62
     0
 10
31.196
 20
59.9324
 30
0.0
 11
31.196
 21
73.9316
 31
0.0
  0
LINE
  8
0
 62
     0
 10
50.2461
 20
73.9316
 30
0.0
 11
64.2454
 21
73.9316
 31
0.0
  0
LINE
  8
0
 62
     0
 10
64.2454
 20
73.9316
 30
0.0
 11
64.2454
 21
59.9324
 31
0.0
  0
LINE
  8
0
 62
     0
 10
64.2454
 20
59.9324
 30
0.0
 11
50.2461
 21
59.9324
 31
0.0
  0
LINE
  8
0
 62
     0
 10
50.2461
 20
59.9324
 30
0.0
 11
50.2461
 21
73.9316
 31
0.0
  0
LINE
  8
0
 62
     0
 10
69.2961
 20
73.9316
 30
0.0
 11
83.2954
 21
73.9316
 31
0.0
  0
LINE
  8
0
 62
     0
 10
83.2954
 20
73.9316
 30
0.0
 11
83.2954
 21
59.9324
 31
0.0
  0
LINE
  8
0
 62
     0
 10
83.2954
 20
59.9324
 30
0.0
 11
69.2961
 21
59.9324
 31
0.0
  0
LINE
  8
0
 62
     0
 10
69.2961
 20
59.9324
 30
0.0
 11
69.2961
 21
73.9316
 31
0.0
  0
LINE
  8
0
 62
     0
 10
88.3461
 20
73.9316
 30
0.0
 11
102.345
 21
73.9316
 31
0.0
  0
LINE
  8
0
 62
     0
 10
102.345
 20
73.9316
 30
0.0
 11
102.345
 21
59.9324
 31
0.0
  0
LINE
  8
0
 62
     0
 10
102.345
 20
59.9324
 30
0.0
 11
88.3461
 21
59.9324
 31
0.0
  0
LINE
  8
0
 62
     0
 10
88.3461
 20
59.9324
 30
0.0
 11
88.3461
 21
73.9316
 31
0.0
  0
LINE
  8
0
 62
     0
 10
107.396
 20
73.9316
 30
0.0
 11
121.395
 21
73.9316
 31
0.0
  0
LINE
  8
0
 62
     0
 10
121.395
 20
73.9316
 30
0.0
 11
121.395
 21
59.9324
 31
0.0
  0
LINE
  8
0
 62
     0
 10
121.395
 20
59.9324
 30
0.0
 11
107.396
 21
59.9324
 31
0.0
  0
LINE
  8
0
 62
     0
 10
107.396
 20
59.9324
 30
0.0
 11
107.396
 21
73.9316
 31
0.0
  0
LINE
  8
0
 62
     0
 10
126.446
 20
73.9316
 30
0.0
 11
140.445
 21
73.9316
 31
0.0
  0
LINE
  8
0
 62
     0
 10
140.445
 20
73.9316
 30
0.0
 11
140.445
 21
59.9324
 31
0.0
  0
LINE
  8
0
 62
     0
 10
140.445
 20
59.9324
 30
0.0
 11
126.446
 21
59.9324
 31
0.0
  0
LINE
  8
0
 62
     0
 10
126.446
 20
59.9324
 30
0.0
 11
126.446
 21
73.9316
 31
0.0
  0
LINE
  8
0
 62
     0
 10
145.496
 20
73.9316
 30
0.0
 11
159.495
 21
73.9316
 31
0.0
  0
LINE
  8
0
 62
     0
 10
159.495
 20
73.9316
 30
0.0
 11
159.495
 21
59.9324
 31
0.0
  0
LINE
  8
0
 62
     0
 10
159.495
 20
59.9324
 30
0.0
 11
145.496
 21
59.9324
 31
0.0
  0
LINE
  8
0
 62
     0
 10
145.496
 20
59.9324
 30
0.0
 11
145.496
 21
73.9316
 31
0.0
  0
LINE
  8
0
 62
     0
 10
164.546
 20
73.9316
 30
0.0
 11
178.545
 21
73.9316
 31
0.0
  0
LINE
  8
0
 62
     0
 10
178.545
 20
73.9316
 30
0.0
 11
178.545
 21
59.9324
 31
0.0
  0
LINE
  8
0
 62
     0
 10
178.545
 20
59.9324
 30
0.0
 11
164.546
 21
59.9324
 31
0.0
  0
LINE
  8
0
 62
     0
 10
164.546
 20
59.9324
 30
0.0
 11
164.546
 21
73.9316
 31
0.0
  0
LINE
  8
0
 62
     0
 10
183.596
 20
73.9316
 30
0.0
 11
197.595
 21
73.9316
 31
0.0
  0
LINE
  8
0
 62
     0
 10
197.595
 20
73.9316
 30
0.0
 11
197.595
 21
59.9324
 31
0.0
  0
LINE
  8
0
 62
     0
 10
197.595
 20
59.9324
 30
0.0
 11
183.596
 21
59.9324
 31
0.0
  0
LINE
  8
0
 62
     0
 10
183.596
 20
59.9324
 30
0.0
 11
183.596
 21
73.9316
 31
0.0
  0
LINE
  8
0
 62
     0
 10
202.646
 20
73.9316
 30
0.0
 11
216.645
 21
73.9316
 31
0.0
  0
LINE
  8
0
 62
     0
 10
216.645
 20
73.9316
 30
0.0
 11
216.645
 21
59.9324
 31
0.0
  0
LINE
  8
0
 62
     0
 10
216.645
 20
59.9324
 30
0.0
 11
202.646
 21
59.9324
 31
0.0
  0
LINE
  8
0
 62
     0
 10
202.646
 20
59.9324
 30
0.0
 11
202.646
 21
73.9316
 31
0.0
  0
LINE
  8
0
 62
     0
 10
221.696
 20
73.9316
 30
0.0
 11
235.695
 21
73.9316
 31
0.0
  0
LINE
  8
0
 62
     0
 10
235.695
 20
73.9316
 30
0.0
 11
235.695
 21
59.9324
 31
0.0
  0
LINE
  8
0
 62
     0
 10
235.695
 20
59.9324
 30
0.0
 11
221.696
 21
59.9324
 31
0.0
  0
LINE
  8
0
 62
     0
 10
221.696
 20
59.9324
 30
0.0
 11
221.696
 21
73.9316
 31
0.0
  0
LINE
  8
0
 62
     0
 10
240.746
 20
73.9316
 30
0.0
 11
254.744
 21
73.9316
 31
0.0
  0
LINE
  8
0
 62
     0
 10
254.744
 20
73.9316
 30
0.0
 11
254.744
 21
59.9324
 31
0.0
  0
LINE
  8
0
 62
     0
 10
254.744
 20
59.9324
 30
0.0
 11
240.746
 21
59.9324
 31
0.0
  0
LINE
  8
0
 62
     0
 10
240.746
 20
59.9324
 30
0.0
 11
240.746
 21
73.9316
 31
0.0
  0
LINE
  8
0
 62
     0
 10
259.796
 20
73.9316
 30
0.0
 11
273.795
 21
73.9316
 31
0.0
  0
LINE
  8
0
 62
     0
 10
273.795
 20
73.9316
 30
0.0
 11
273.795
 21
59.9324
 31
0.0
  0
LINE
  8
0
 62
     0
 10
273.795
 20
59.9324
 30
0.0
 11
259.796
 21
59.9324
 31
0.0
  0
LINE
  8
0
 62
     0
 10
259.796
 20
59.9324
 30
0.0
 11
259.796
 21
73.9316
 31
0.0
  0
LINE
  8
0
 62
     0
 10
2.62103
 20
92.9816
 30
0.0
 11
16.6205
 21
92.9816
 31
0.0
  0
LINE
  8
0
 62
     0
 10
16.6205
 20
92.9816
 30
0.0
 11
16.6205
 21
78.9824
 31
0.0
  0
LINE
  8
0
 62
     0
 10
16.6205
 20
78.9824
 30
0.0
 11
2.62103
 21
78.9824
 31
0.0
  0
LINE
  8
0
 62
     0
 10
2.62103
 20
78.9824
 30
0.0
 11
2.62103
 21
92.9816
 31
0.0
  0
LINE
  8
0
 62
     0
 10
21.671
 20
92.9816
 30
0.0
 11
35.6704
 21
92.9816
 31
0.0
  0
LINE
  8
0
 62
     0
 10
35.6704
 20
92.9816
 30
0.0
 11
35.6704
 21
78.9824
 31
0.0
  0
LINE
  8
0
 62
     0
 10
35.6704
 20
78.9824
 30
0.0
 11
21.671
 21
78.9824
 31
0.0
  0
LINE
  8
0
 62
     0
 10
21.671
 20
78.9824
 30
0.0
 11
21.671
 21
92.9816
 31
0.0
  0
LINE
  8
0
 62
     0
 10
40.7211
 20
92.9816
 30
0.0
 11
54.7204
 21
92.9816
 31
0.0
  0
LINE
  8
0
 62
     0
 10
54.7204
 20
92.9816
 30
0.0
 11
54.7204
 21
78.9824
 31
0.0
  0
LINE
  8
0
 62
     0
 10
54.7204
 20
78.9824
 30
0.0
 11
40.7211
 21
78.9824
 31
0.0
  0
LINE
  8
0
 62
     0
 10
40.7211
 20
78.9824
 30
0.0
 11
40.7211
 21
92.9816
 31
0.0
  0
LINE
  8
0
 62
     0
 10
59.7711
 20
92.9816
 30
0.0
 11
73.7704
 21
92.9816
 31
0.0
  0
LINE
  8
0
 62
     0
 10
73.7704
 20
92.9816
 30
0.0
 11
73.7704
 21
78.9824
 31
0.0
  0
LINE
  8
0
 62
     0
 10
73.7704
 20
78.9824
 30
0.0
 11
59.7711
 21
78.9824
 31
0.0
  0
LINE
  8
0
 62
     0
 10
59.7711
 20
78.9824
 30
0.0
 11
59.7711
 21
92.9816
 31
0.0
  0
LINE
  8
0
 62
     0
 10
78.8211
 20
92.9816
 30
0.0
 11
92.8204
 21
92.9816
 31
0.0
  0
LINE
  8
0
 62
     0
 10
92.8204
 20
92.9816
 30
0.0
 11
92.8204
 21
78.9824
 31
0.0
  0
LINE
  8
0
 62
     0
 10
92.8204
 20
78.9824
 30
0.0
 11
78.8211
 21
78.9824
 31
0.0
  0
LINE
  8
0
 62
     0
 10
78.8211
 20
78.9824
 30
0.0
 11
78.8211
 21
92.9816
 31
0.0
  0
LINE
  8
0
 62
     0
 10
97.8697
 20
92.9816
 30
0.0
 11
111.869
 21
92.9816
 31
0.0
  0
LINE
  8
0
 62
     0
 10
111.869
 20
92.9816
 30
0.0
 11
111.869
 21
78.9824
 31
0.0
  0
LINE
  8
0
 62
     0
 10
111.869
 20
78.9824
 30
0.0
 11
97.8697
 21
78.9824
 31
0.0
  0
LINE
  8
0
 62
     0
 10
97.8697
 20
78.9824
 30
0.0
 11
97.8697
 21
92.9816
 31
0.0
  0
LINE
  8
0
 62
     0
 10
116.92
 20
92.9816
 30
0.0
 11
130.92
 21
92.9816
 31
0.0
  0
LINE
  8
0
 62
     0
 10
130.92
 20
92.9816
 30
0.0
 11
130.92
 21
78.9824
 31
0.0
  0
LINE
  8
0
 62
     0
 10
130.92
 20
78.9824
 30
0.0
 11
116.92
 21
78.9824
 31
0.0
  0
LINE
  8
0
 62
     0
 10
116.92
 20
78.9824
 30
0.0
 11
116.92
 21
92.9816
 31
0.0
  0
LINE
  8
0
 62
     0
 10
135.971
 20
92.9816
 30
0.0
 11
149.97
 21
92.9816
 31
0.0
  0
LINE
  8
0
 62
     0
 10
149.97
 20
92.9816
 30
0.0
 11
149.97
 21
78.9824
 31
0.0
  0
LINE
  8
0
 62
     0
 10
149.97
 20
78.9824
 30
0.0
 11
135.971
 21
78.9824
 31
0.0
  0
LINE
  8
0
 62
     0
 10
135.971
 20
78.9824
 30
0.0
 11
135.971
 21
92.9816
 31
0.0
  0
LINE
  8
0
 62
     0
 10
155.021
 20
92.9816
 30
0.0
 11
169.02
 21
92.9816
 31
0.0
  0
LINE
  8
0
 62
     0
 10
169.02
 20
92.9816
 30
0.0
 11
169.02
 21
78.9824
 31
0.0
  0
LINE
  8
0
 62
     0
 10
169.02
 20
78.9824
 30
0.0
 11
155.021
 21
78.9824
 31
0.0
  0
LINE
  8
0
 62
     0
 10
155.021
 20
78.9824
 30
0.0
 11
155.021
 21
92.9816
 31
0.0
  0
LINE
  8
0
 62
     0
 10
174.071
 20
92.9816
 30
0.0
 11
188.07
 21
92.9816
 31
0.0
  0
LINE
  8
0
 62
     0
 10
188.07
 20
92.9816
 30
0.0
 11
188.07
 21
78.9824
 31
0.0
  0
LINE
  8
0
 62
     0
 10
188.07
 20
78.9824
 30
0.0
 11
174.071
 21
78.9824
 31
0.0
  0
LINE
  8
0
 62
     0
 10
174.071
 20
78.9824
 30
0.0
 11
174.071
 21
92.9816
 31
0.0
  0
LINE
  8
0
 62
     0
 10
193.121
 20
92.9816
 30
0.0
 11
207.12
 21
92.9816
 31
0.0
  0
LINE
  8
0
 62
     0
 10
207.12
 20
92.9816
 30
0.0
 11
207.12
 21
78.9824
 31
0.0
  0
LINE
  8
0
 62
     0
 10
207.12
 20
78.9824
 30
0.0
 11
193.121
 21
78.9824
 31
0.0
  0
LINE
  8
0
 62
     0
 10
193.121
 20
78.9824
 30
0.0
 11
193.121
 21
92.9816
 31
0.0
  0
LINE
  8
0
 62
     0
 10
212.171
 20
92.9816
 30
0.0
 11
226.17
 21
92.9816
 31
0.0
  0
LINE
  8
0
 62
     0
 10
226.17
 20
92.9816
 30
0.0
 11
226.17
 21
78.9824
 31
0.0
  0
LINE
  8
0
 62
     0
 10
226.17
 20
78.9824
 30
0.0
 11
212.171
 21
78.9824
 31
0.0
  0
LINE
  8
0
 62
     0
 10
212.171
 20
78.9824
 30
0.0
 11
212.171
 21
92.9816
 31
0.0
  0
LINE
  8
0
 62
     0
 10
231.221
 20
92.9816
 30
0.0
 11
245.22
 21
92.9816
 31
0.0
  0
LINE
  8
0
 62
     0
 10
245.22
 20
92.9816
 30
0.0
 11
245.22
 21
78.9824
 31
0.0
  0
LINE
  8
0
 62
     0
 10
245.22
 20
78.9824
 30
0.0
 11
231.221
 21
78.9824
 31
0.0
  0
LINE
  8
0
 62
     0
 10
231.221
 20
78.9824
 30
0.0
 11
231.221
 21
92.9816
 31
0.0
  0
LINE
  8
0
 62
     0
 10
255.032
 20
92.9816
 30
0.0
 11
269.033
 21
92.9816
 31
0.0
  0
LINE
  8
0
 62
     0
 10
269.033
 20
92.9816
 30
0.0
 11
269.033
 21
78.9824
 31
0.0
  0
LINE
  8
0
 62
     0
 10
269.033
 20
78.9824
 30
0.0
 11
255.032
 21
78.9824
 31
0.0
  0
LINE
  8
0
 62
     0
 10
255.032
 20
78.9824
 30
0.0
 11
255.032
 21
92.9816
 31
0.0
  0
LINE
  8
0
 62
     0
 10
2.62103
 20
112.032
 30
0.0
 11
16.6205
 21
112.032
 31
0.0
  0
LINE
  8
0
 62
     0
 10
16.6205
 20
112.032
 30
0.0
 11
16.6205
 21
98.0324
 31
0.0
  0
LINE
  8
0
 62
     0
 10
16.6205
 20
98.0324
 30
0.0
 11
2.62103
 21
98.0324
 31
0.0
  0
LINE
  8
0
 62
     0
 10
2.62103
 20
98.0324
 30
0.0
 11
2.62103
 21
112.032
 31
0.0
  0
LINE
  8
0
 62
     0
 10
21.671
 20
112.032
 30
0.0
 11
35.6704
 21
112.032
 31
0.0
  0
LINE
  8
0
 62
     0
 10
35.6704
 20
112.032
 30
0.0
 11
35.6704
 21
98.0324
 31
0.0
  0
LINE
  8
0
 62
     0
 10
35.6704
 20
98.0324
 30
0.0
 11
21.671
 21
98.0324
 31
0.0
  0
LINE
  8
0
 62
     0
 10
21.671
 20
98.0324
 30
0.0
 11
21.671
 21
112.032
 31
0.0
  0
LINE
  8
0
 62
     0
 10
40.7211
 20
112.032
 30
0.0
 11
54.7204
 21
112.032
 31
0.0
  0
LINE
  8
0
 62
     0
 10
54.7204
 20
112.032
 30
0.0
 11
54.7204
 21
98.0324
 31
0.0
  0
LINE
  8
0
 62
     0
 10
54.7204
 20
98.0324
 30
0.0
 11
40.7211
 21
98.0324
 31
0.0
  0
LINE
  8
0
 62
     0
 10
40.7211
 20
98.0324
 30
0.0
 11
40.7211
 21
112.032
 31
0.0
  0
LINE
  8
0
 62
     0
 10
59.7711
 20
112.032
 30
0.0
 11
73.7704
 21
112.032
 31
0.0
  0
LINE
  8
0
 62
     0
 10
73.7704
 20
112.032
 30
0.0
 11
73.7704
 21
98.0324
 31
0.0
  0
LINE
  8
0
 62
     0
 10
73.7704
 20
98.0324
 30
0.0
 11
59.7711
 21
98.0324
 31
0.0
  0
LINE
  8
0
 62
     0
 10
59.7711
 20
98.0324
 30
0.0
 11
59.7711
 21
112.032
 31
0.0
  0
LINE
  8
0
 62
     0
 10
78.8211
 20
112.032
 30
0.0
 11
92.8204
 21
112.032
 31
0.0
  0
LINE
  8
0
 62
     0
 10
92.8204
 20
112.032
 30
0.0
 11
92.8204
 21
98.0324
 31
0.0
  0
LINE
  8
0
 62
     0
 10
92.8204
 20
98.0324
 30
0.0
 11
78.8211
 21
98.0324
 31
0.0
  0
LINE
  8
0
 62
     0
 10
78.8211
 20
98.0324
 30
0.0
 11
78.8211
 21
112.032
 31
0.0
  0
LINE
  8
0
 62
     0
 10
97.8697
 20
112.032
 30
0.0
 11
111.869
 21
112.032
 31
0.0
  0
LINE
  8
0
 62
     0
 10
111.869
 20
112.032
 30
0.0
 11
111.869
 21
98.0324
 31
0.0
  0
LINE
  8
0
 62
     0
 10
111.869
 20
98.0324
 30
0.0
 11
97.8697
 21
98.0324
 31
0.0
  0
LINE
  8
0
 62
     0
 10
97.8697
 20
98.0324
 30
0.0
 11
97.8697
 21
112.032
 31
0.0
  0
LINE
  8
0
 62
     0
 10
116.92
 20
112.032
 30
0.0
 11
130.92
 21
112.032
 31
0.0
  0
LINE
  8
0
 62
     0
 10
130.92
 20
112.032
 30
0.0
 11
130.92
 21
98.0324
 31
0.0
  0
LINE
  8
0
 62
     0
 10
130.92
 20
98.0324
 30
0.0
 11
116.92
 21
98.0324
 31
0.0
  0
LINE
  8
0
 62
     0
 10
116.92
 20
98.0324
 30
0.0
 11
116.92
 21
112.032
 31
0.0
  0
LINE
  8
0
 62
     0
 10
135.971
 20
112.032
 30
0.0
 11
149.97
 21
112.032
 31
0.0
  0
LINE
  8
0
 62
     0
 10
149.97
 20
112.032
 30
0.0
 11
149.97
 21
98.0324
 31
0.0
  0
LINE
  8
0
 62
     0
 10
149.97
 20
98.0324
 30
0.0
 11
135.971
 21
98.0324
 31
0.0
  0
LINE
  8
0
 62
     0
 10
135.971
 20
98.0324
 30
0.0
 11
135.971
 21
112.032
 31
0.0
  0
LINE
  8
0
 62
     0
 10
155.021
 20
112.032
 30
0.0
 11
169.02
 21
112.032
 31
0.0
  0
LINE
  8
0
 62
     0
 10
169.02
 20
112.032
 30
0.0
 11
169.02
 21
98.0324
 31
0.0
  0
LINE
  8
0
 62
     0
 10
169.02
 20
98.0324
 30
0.0
 11
155.021
 21
98.0324
 31
0.0
  0
LINE
  8
0
 62
     0
 10
155.021
 20
98.0324
 30
0.0
 11
155.021
 21
112.032
 31
0.0
  0
LINE
  8
0
 62
     0
 10
174.071
 20
112.032
 30
0.0
 11
188.07
 21
112.032
 31
0.0
  0
LINE
  8
0
 62
     0
 10
188.07
 20
112.032
 30
0.0
 11
188.07
 21
98.0324
 31
0.0
  0
LINE
  8
0
 62
     0
 10
188.07
 20
98.0324
 30
0.0
 11
174.071
 21
98.0324
 31
0.0
  0
LINE
  8
0
 62
     0
 10
174.071
 20
98.0324
 30
0.0
 11
174.071
 21
112.032
 31
0.0
  0
LINE
  8
0
 62
     0
 10
193.121
 20
112.032
 30
0.0
 11
207.12
 21
112.032
 31
0.0
  0
LINE
  8
0
 62
     0
 10
207.12
 20
112.032
 30
0.0
 11
207.12
 21
98.0324
 31
0.0
  0
LINE
  8
0
 62
     0
 10
207.12
 20
98.0324
 30
0.0
 11
193.121
 21
98.0324
 31
0.0
  0
LINE
  8
0
 62
     0
 10
193.121
 20
98.0324
 30
0.0
 11
193.121
 21
112.032
 31
0.0
  0
LINE
  8
0
 62
     0
 10
212.171
 20
112.032
 30
0.0
 11
226.17
 21
112.032
 31
0.0
  0
LINE
  8
0
 62
     0
 10
226.17
 20
112.032
 30
0.0
 11
226.17
 21
98.0324
 31
0.0
  0
LINE
  8
0
 62
     0
 10
226.17
 20
98.0324
 30
0.0
 11
212.171
 21
98.0324
 31
0.0
  0
LINE
  8
0
 62
     0
 10
212.171
 20
98.0324
 30
0.0
 11
212.171
 21
112.032
 31
0.0
  0
LINE
  8
0
 62
     0
 10
231.221
 20
112.032
 30
0.0
 11
245.22
 21
112.032
 31
0.0
  0
LINE
  8
0
 62
     0
 10
245.22
 20
112.032
 30
0.0
 11
245.22
 21
98.0324
 31
0.0
  0
LINE
  8
0
 62
     0
 10
245.22
 20
98.0324
 30
0.0
 11
231.221
 21
98.0324
 31
0.0
  0
LINE
  8
0
 62
     0
 10
231.221
 20
98.0324
 30
0.0
 11
231.221
 21
112.032
 31
0.0
  0
LINE
  8
0
 62
     0
 10
255.032
 20
112.032
 30
0.0
 11
269.033
 21
112.032
 31
0.0
  0
LINE
  8
0
 62
     0
 10
269.033
 20
112.032
 30
0.0
 11
269.033
 21
98.0324
 31
0.0
  0
LINE
  8
0
 62
     0
 10
269.033
 20
98.0324
 30
0.0
 11
255.032
 21
98.0324
 31
0.0
  0
LINE
  8
0
 62
     0
 10
255.032
 20
98.0324
 30
0.0
 11
255.032
 21
112.032
 31
0.0
  0
ENDSEC
  0
EOF
